<?xml version="1.0" standalone="no"?>
<svg version="1.0" xmlns="http://www.w3.org/2000/svg" width="512.000000px" height="512.000000px" viewBox="0 0 512.000000 512.000000">
<g transform="translate(0.000000,512.000000) scale(0.100000,-0.100000)" fill="#800000" stroke="none">
<path d="M1000 2559 l0 -2561 878 7 c482 3 932 11 998 15 139 11 333 49 438 87 300 108 536 328 680 634 80 170 116 329 116 524 0 208 -25 350 -90 512 -146 364 -479 643 -997 834 -79 29 -143 55 -143 59 0 3 28 16 63 29 95 36 263 124 362 190 316 208 506 479 581 826 23 108 24 418 2 520 -90 407 -393 683 -883 805 -232 58 -272 61 -910 70 -324 5 -704 9 -842 9 l-253 1 0 -2561z m1251 2001 c350 -23 635 -135 769 -302 48 -60 111 -188 129 -262 7 -27 12 -113 12 -190 0 -116 -5 -158 -25 -237 -54 -214 -180 -385 -370 -504 -195 -121 -415 -177 -751 -190 -82 -3 -183 -8 -222 -11 l-73 -5 0 860 0 860 198 -5 c108 -3 258 -9 333 -14z m29 -2180 c323 -57 599 -195 800 -399 131 -134 206 -268 246 -438 13 -53 15 -103 11 -228 -4 -137 -8 -172 -31 -241 -54 -168 -186 -319 -353 -403 -158 -79 -423 -112 -1015 -125 l-218 -5 0 936 0 936 218 -6 c158 -4 251 -11 342 -27z"/>
</g>
</svg>
