<?xml version="1.0" standalone="no"?>
<svg version="1.0" xmlns="http://www.w3.org/2000/svg" width="512px" height="512px" viewBox="0 0 512 512">
<g transform="translate(0,512) scale(0.1,-0.1)" fill="#7b1113" stroke="none">
<path d="M2665 4542 c-11 -10 -58 -33 -105 -50 -47 -17 -119 -43 -160 -58 -214 -78 -724 -341 -970 -499 -156 -101 -311 -235 -561 -484 -402 -403 -637 -698 -770 -966 -27 -55 -57 -125 -65 -155 -21 -78 -29 -338 -15 -505 39 -464 182 -746 515 -1019 176 -144 280 -202 414 -232 90 -20 297 -15 437 10 446 81 946 307 1239 560 49 42 92 75 96 74 4 -2 79 -69 166 -150 183 -169 259 -229 401 -314 174 -105 342 -163 535 -183 279 -31 616 72 850 260 206 164 365 465 422 798 21 125 21 367 0 492 -70 411 -415 941 -978 1505 -391 390 -738 656 -1083 828 -203 101 -323 130 -368 88z m150 -288 c73 -19 219 -95 336 -175 143 -98 352 -282 575 -504 423 -423 610 -666 789 -1030 159 -324 183 -437 155 -730 -38 -384 -200 -601 -537 -717 -122 -41 -206 -46 -368 -18 -438 75 -507 115 -847 500 l-57 64 -173 -140 c-273 -220 -361 -281 -536 -367 -231 -116 -391 -152 -657 -151 -208 1 -337 20 -423 62 -62 29 -195 150 -261 235 -137 178 -200 413 -201 737 0 479 101 775 385 1130 110 137 372 417 505 539 201 183 333 271 603 400 369 177 523 213 712 165z"/>
</g>
</svg>
