<?xml version="1.0" encoding="UTF-8" standalone="no"?>
<svg version="1.0" xmlns="http://www.w3.org/2000/svg" width="512px" height="512px" viewBox="0 0 5120 5120">
<style>@media (prefers-color-scheme: dark) { g { fill: hsl(358.867925, 50.476191%, 72.549020%) } }</style>
<g transform="scale(1,-1)" fill="hsl(358.867925, 75.714286%, 27.450980%)">
<path d="M 2656 -500 c -21 -13 -91 -43 -155 -66 -240 -88 -501 -211 -821 -390 -328 -182 -474 -296 -804 -626 -332 -332 -552 -592 -688 -814 -68 -110 -147 -278 -157 -335 -28 -153 -22 -470 14 -677 61 -351 224 -614 527 -851 122 -96 222 -154 313 -184 73 -24 94 -27 235 -27 170 0 245 10 425 55 309 77 633 216 890 383 66 43 185 134 266 203 15 13 37 -4 195 -147 206 -185 316 -267 464 -344 364 -190 743 -195 1102 -15 327 164 531 454 624 889 25 116 25 459 1 568 -88 384 -374 837 -838 1328 -331 350 -666 636 -969 827 -214 135 -467 248 -554 247 -17 0 -48 -11 -70 -24 z m 199 -294 c81 -30 255 -131 357 -207 289 -217 799 -728 1017 -1019 174 -233 355 -573 417 -785 56 -191 37 -509 -43 -710 -92 -232 -295 -392 -565 -447 -92 -19 -158 -15 -336 17 -235 42 -339 79 -456 163 -59 43 -212 194 -328 325 l-57 63 -185 -148 c-250 -199 -338 -261 -475 -332 -135 -70 -240 -112 -360 -144 -79 -21 -108 -23 -341 -23 -356 0 -414 17 -573 165 -98 92 -160 174 -209 278 -81 171 -114 383 -105 670 11 369 85 615 266 883 88 132 161 219 369 443 336 361 527 504 906 679 290 133 376 158 531 154 82 -3 125 -9 170 -25 z"/>
</g>
</svg>
