<?xml version="1.0" standalone="no"?>
<!DOCTYPE svg PUBLIC "-//W3C//DTD SVG 20010904//EN"
 "http://www.w3.org/TR/2001/REC-SVG-20010904/DTD/svg10.dtd">
<svg version="1.0" xmlns="http://www.w3.org/2000/svg"
 width="896.000000pt" height="896.000000pt" viewBox="0 0 896.000000 896.000000"
 preserveAspectRatio="xMidYMid meet">
<metadata>
Created by potrace 1.14, written by Peter Selinger 2001-2017
</metadata>
<g transform="translate(0.000000,896.000000) scale(0.100000,-0.100000)"
fill="#000000" stroke="none">
<path d="M4866 8951 c-3 -4 -47 -9 -98 -9 -51 -1 -120 -8 -153 -16 -33 -8 -63
-12 -67 -10 -5 3 -8 1 -8 -4 0 -9 -88 -39 -102 -34 -5 1 -8 -2 -8 -6 0 -17
-117 -35 -215 -34 -112 2 -240 -17 -354 -53 -90 -28 -199 -57 -224 -60 -26 -2
-37 -18 -31 -43 8 -29 11 -29 286 7 38 5 61 4 69 -3 9 -8 10 -8 5 2 -8 14 12
16 32 3 10 -6 1 -18 -30 -45 -69 -59 -68 -59 -68 -39 0 15 -2 15 -9 3 -6 -8
-8 -17 -5 -21 4 -7 -33 -21 -86 -33 -14 -3 -81 -6 -150 -7 -131 -1 -246 -23
-295 -55 -18 -11 -51 -17 -113 -19 -98 -2 -168 -28 -236 -87 -19 -17 -29 -21
-42 -15 -3 1 -10 -6 -15 -15 -6 -10 -17 -18 -24 -18 -8 0 -15 -4 -15 -9 0 -9
-25 -21 -43 -21 -4 1 -15 -6 -23 -15 -9 -8 -34 -16 -57 -16 -57 -2 -67 0 -105
17 -19 9 -44 13 -57 10 -14 -4 -25 -1 -28 7 -3 7 -6 5 -6 -5 -1 -10 -12 -20
-28 -24 -15 -4 -34 -13 -41 -21 -16 -16 -42 -17 -42 -2 0 5 4 8 8 5 4 -2 8 7
7 22 0 15 3 29 7 32 4 3 -23 7 -60 8 -76 3 -197 -23 -226 -50 -10 -10 -22 -15
-26 -13 -4 3 -19 -7 -33 -21 -15 -15 -31 -23 -38 -18 -7 4 -9 3 -6 -3 3 -5 -6
-22 -20 -37 l-25 -28 48 -42 48 -43 -39 -13 c-22 -7 -42 -12 -44 -11 -2 2 -7
-1 -10 -6 -7 -11 -143 -69 -153 -65 -5 1 -8 -2 -8 -8 0 -5 -6 -10 -12 -10 -7
0 -52 -19 -99 -42 -72 -36 -89 -49 -102 -78 -8 -20 -13 -47 -10 -62 5 -24 11
-27 64 -33 32 -4 59 -10 59 -13 -1 -12 -111 -97 -122 -94 -5 1 -7 -2 -4 -6 7
-12 -28 -44 -37 -35 -4 3 -7 1 -7 -5 0 -6 -13 -18 -30 -27 -17 -9 -30 -11 -30
-5 0 5 -4 10 -10 10 -5 0 -7 -6 -4 -14 5 -13 -34 -32 -79 -40 -28 -5 -84 -41
-110 -70 -39 -44 -47 -55 -47 -61 0 -3 0 -8 -1 -12 -1 -5 0 -19 1 -32 2 -21
-1 -23 -27 -17 -15 4 -55 10 -88 13 l-61 5 -2 -42 c-2 -29 3 -48 14 -61 9 -11
14 -19 10 -19 -4 0 0 -7 9 -16 19 -19 16 -105 -3 -112 -7 -2 -10 -8 -7 -13 3
-4 -3 -14 -15 -21 -11 -7 -20 -18 -20 -24 0 -7 -13 -26 -29 -43 -16 -17 -24
-31 -18 -31 8 0 8 -3 2 -8 -5 -4 -11 -14 -13 -22 -6 -27 -65 -155 -77 -165 -7
-5 -10 -15 -8 -22 2 -6 -1 -14 -6 -18 -16 -10 -13 -42 5 -49 9 -4 12 -11 8
-18 -5 -7 4 -5 19 5 15 9 27 15 27 12 0 -3 9 4 20 15 12 12 25 18 30 15 6 -4
10 -2 10 4 0 6 23 24 50 39 44 25 210 174 210 188 0 3 13 19 30 36 16 16 30
33 30 36 1 13 67 81 74 75 3 -3 6 1 6 11 0 9 4 15 9 12 5 -3 12 1 15 9 3 9 26
24 52 35 47 21 81 27 55 11 -7 -5 -11 -13 -8 -18 5 -8 -53 -51 -61 -45 -1 1
-14 -10 -27 -24 -14 -15 -25 -24 -25 -21 0 8 -74 -67 -75 -76 0 -4 -7 -12 -15
-17 -8 -5 -10 -10 -5 -10 7 0 7 -3 0 -8 -6 -4 -19 -24 -30 -44 -10 -20 -22
-35 -26 -33 -3 3 -7 -7 -7 -21 0 -18 -20 -47 -73 -101 -41 -41 -79 -80 -84
-86 -6 -7 -12 -32 -14 -56 -1 -24 -4 -52 -6 -61 -5 -25 -85 -135 -97 -132 -5
1 -8 -3 -5 -10 2 -7 0 -21 -5 -31 -12 -24 -1 -57 21 -57 9 0 26 8 37 18 41 37
96 74 101 68 4 -3 1 -6 -5 -6 -6 0 -9 -7 -6 -15 4 -8 -1 -17 -9 -21 -9 -3 -13
-12 -10 -20 4 -10 -2 -17 -17 -21 -16 -4 -18 -8 -8 -14 10 -7 11 -9 0 -9 -7 0
-11 -4 -7 -9 3 -5 1 -12 -5 -16 -5 -3 -17 -21 -25 -39 -16 -33 -27 -38 -53
-23 -6 5 -12 5 -12 1 0 -3 -7 -1 -15 6 -8 7 -15 9 -15 5 0 -4 -8 -1 -17 6 -11
10 -14 10 -9 2 4 -8 1 -13 -9 -13 -9 0 -13 -4 -10 -10 3 -5 2 -10 -3 -10 -8 0
-9 -19 -3 -52 0 -5 7 -7 14 -5 6 1 11 -4 10 -10 -2 -7 6 -13 16 -13 15 0 19
-5 16 -22 -3 -12 -10 -25 -17 -30 -7 -4 -9 -8 -5 -8 4 0 2 -10 -5 -22 -7 -13
-11 -26 -10 -30 1 -5 -3 -8 -8 -8 -6 0 -10 -7 -10 -15 0 -28 -54 -146 -61
-133 -3 7 -9 64 -12 125 -4 65 -13 128 -22 149 -12 30 -13 39 -3 47 9 6 8 7
-4 4 -9 -3 -22 1 -28 9 -15 17 -37 18 -42 2 -2 -6 -15 -12 -29 -13 -13 -1 -23
-6 -23 -11 1 -5 -7 -26 -17 -46 -10 -20 -23 -69 -29 -108 -12 -86 -29 -123
-49 -110 -12 7 -12 12 3 35 26 40 25 144 -2 222 -12 35 -23 71 -25 80 -1 10
-5 23 -8 28 -4 6 -9 22 -13 37 -4 18 -11 25 -21 22 -8 -3 -14 -9 -13 -12 1 -4
-4 -19 -10 -34 -8 -21 -16 -26 -29 -21 -15 6 -16 4 -5 -9 11 -14 10 -18 -5
-27 -10 -6 -15 -11 -10 -11 12 0 -23 -63 -47 -83 -11 -10 -15 -15 -7 -11 9 5
12 3 7 -4 -4 -7 -14 -12 -22 -12 -8 0 -13 -4 -9 -9 3 -5 -4 -25 -16 -45 l-20
-35 20 -46 c11 -26 31 -55 43 -65 17 -14 19 -19 8 -20 -9 0 -5 -6 10 -13 14
-8 24 -19 23 -25 -2 -6 4 -9 12 -6 8 4 15 14 15 24 0 26 30 92 49 108 9 7 10
11 4 7 -7 -3 -13 -1 -13 4 0 17 27 13 34 -5 4 -10 -1 -26 -11 -38 -14 -16 -15
-18 -2 -8 14 11 18 9 23 -13 4 -14 11 -23 16 -20 6 4 13 -1 17 -10 6 -17 -14
-38 -28 -29 -4 2 -9 -3 -13 -11 -3 -8 -15 -15 -26 -15 -12 0 -19 -4 -15 -9 3
-5 1 -12 -5 -16 -16 -10 -12 -61 6 -76 14 -11 22 -10 55 9 38 22 59 22 59 1 0
-6 -6 -7 -12 -3 -9 6 -9 3 0 -9 17 -20 7 -73 -14 -81 -16 -6 -19 -49 -4 -77 8
-14 7 -19 -2 -19 -7 -1 -3 -6 9 -13 23 -13 83 -84 83 -98 0 -5 -4 -9 -8 -9 -8
0 -33 -45 -34 -60 0 -3 -16 -49 -35 -103 -39 -112 -38 -139 3 -112 18 12 24
13 19 4 -3 -8 1 -5 10 6 17 19 17 19 11 -16 -3 -19 -15 -114 -26 -210 -12 -96
-27 -232 -36 -304 -8 -71 -14 -147 -14 -167 1 -28 -4 -40 -20 -48 -11 -6 -26
-8 -32 -4 -7 4 -8 3 -4 -5 4 -6 16 -9 27 -6 10 4 19 2 19 -3 0 -14 -43 -32
-65 -28 -11 3 -23 5 -27 5 -3 1 -21 27 -39 59 -18 31 -46 75 -63 97 -16 22
-31 42 -32 44 -2 2 -18 6 -36 10 -44 9 -68 -15 -68 -70 0 -37 31 -114 53 -130
4 -3 17 -23 28 -44 26 -48 23 -151 -4 -167 -27 -14 -20 -47 18 -90 20 -21 33
-43 30 -48 -4 -6 -2 -10 4 -10 17 0 23 -59 11 -108 -9 -38 -8 -55 4 -88 11
-32 12 -45 3 -53 -9 -9 -8 -11 6 -6 16 7 22 -6 18 -41 -2 -19 29 -25 45 -9 8
8 15 18 16 22 2 22 12 33 30 33 10 0 16 5 13 10 -11 18 27 24 40 7 7 -10 15
-17 18 -17 2 0 20 -14 38 -32 19 -17 28 -28 22 -24 -7 4 -13 2 -13 -4 0 -6 -5
-8 -10 -5 -5 3 -10 2 -10 -4 0 -5 -8 -12 -17 -16 -20 -6 -55 -73 -42 -77 9 -3
-19 -108 -28 -108 -12 0 -53 52 -53 66 0 8 -4 13 -9 10 -11 -7 -43 28 -34 37
3 4 1 7 -6 7 -7 0 -9 4 -6 10 3 5 -1 10 -9 10 -8 0 -18 5 -22 12 -5 7 -2 9 7
4 8 -4 3 2 -11 13 -14 11 -34 21 -45 21 -13 0 -16 -3 -8 -8 9 -6 5 -38 -17
-132 -16 -69 -30 -130 -30 -136 0 -6 16 -14 35 -17 46 -7 63 -25 69 -73 3 -22
12 -73 20 -114 8 -41 17 -106 21 -145 4 -38 13 -81 20 -95 7 -14 11 -33 9 -43
-1 -11 0 -16 4 -13 6 7 74 -111 75 -131 0 -7 4 -13 8 -13 5 0 6 -6 3 -14 -3
-7 2 -16 11 -20 10 -3 15 -12 12 -20 -3 -8 1 -12 11 -11 25 2 52 16 48 24 -2
3 2 14 9 24 11 16 15 13 39 -23 14 -22 26 -44 26 -48 0 -5 13 -24 29 -42 16
-19 39 -55 52 -82 13 -26 28 -48 32 -48 5 0 6 -4 3 -9 -3 -4 6 -18 19 -31 13
-13 22 -27 19 -31 -3 -5 0 -9 6 -9 6 0 16 -12 23 -27 6 -15 22 -38 35 -52 12
-13 22 -30 22 -37 0 -8 6 -14 13 -14 8 0 7 -4 -3 -10 -13 -8 -12 -10 3 -10 10
0 21 -10 26 -22 5 -13 19 -33 30 -45 12 -12 21 -26 21 -30 0 -5 9 -14 20 -21
11 -7 20 -22 20 -34 0 -12 3 -18 7 -15 6 7 43 -21 43 -32 0 -4 22 -31 50 -60
27 -29 47 -58 43 -64 -3 -5 -2 -7 4 -4 6 4 25 -12 43 -35 19 -23 28 -38 21
-34 -7 5 8 -13 33 -40 26 -26 44 -54 42 -60 -3 -7 5 -14 16 -17 11 -3 17 -10
13 -17 -3 -6 -2 -9 3 -8 5 2 32 -19 59 -47 28 -27 82 -77 119 -110 38 -33 84
-75 101 -93 18 -17 36 -32 40 -32 13 0 57 -51 59 -67 3 -19 14 -30 14 -13 0 7
18 -5 39 -26 22 -21 37 -42 34 -47 -3 -6 -1 -7 4 -4 11 7 47 -26 38 -35 -3 -3
6 -13 20 -22 14 -9 23 -22 19 -28 -4 -6 -3 -8 3 -5 6 4 43 -27 83 -68 39 -41
75 -75 80 -75 4 0 19 -11 34 -25 15 -14 33 -25 40 -25 8 0 31 -8 52 -17 26
-11 71 -18 134 -19 52 -1 109 -8 125 -15 36 -15 40 -16 61 -18 9 0 12 -6 8
-13 -4 -6 -3 -8 3 -5 6 4 55 -8 110 -27 54 -19 145 -48 203 -66 58 -17 112
-34 120 -37 8 -3 27 -7 41 -9 15 -2 39 -9 55 -15 16 -7 33 -11 38 -10 4 1 13
-5 20 -13 16 -21 74 -9 82 16 3 12 1 24 -5 28 -7 4 -11 11 -10 16 3 20 -2 28
-10 15 -7 -11 -18 -6 -55 21 -25 20 -43 38 -39 42 18 17 150 -3 164 -25 4 -8
11 -10 15 -6 9 8 84 -33 84 -47 0 -5 3 -6 6 -3 8 8 64 -24 64 -36 0 -4 4 -6 9
-3 5 3 23 -8 41 -24 18 -17 36 -30 41 -30 4 0 12 -7 17 -16 9 -17 92 -27 92
-11 0 4 6 7 14 7 8 0 17 7 20 16 4 10 14 14 26 11 11 -3 18 -1 14 4 -8 14 28
10 60 -6 15 -8 34 -15 41 -15 7 0 25 -10 41 -22 15 -12 34 -23 42 -24 30 -5
41 -14 36 -29 -6 -14 -8 -13 -21 2 -13 17 -14 17 -8 -3 4 -17 0 -23 -17 -28
-36 -9 -88 -7 -88 4 0 6 -5 10 -11 10 -5 0 -8 -4 -5 -9 5 -8 -47 -33 -56 -27
-1 1 -13 -8 -25 -21 -12 -13 -20 -23 -16 -23 3 0 0 -6 -6 -14 -12 -14 -46 -11
-67 6 -7 5 -16 8 -20 7 -23 -4 -33 2 -28 19 5 14 4 15 -5 2 -10 -13 -12 -13
-21 0 -5 8 -10 11 -10 6 0 -5 -7 -3 -15 4 -8 7 -13 16 -10 20 3 5 0 12 -6 16
-8 5 -9 3 -4 -6 5 -8 3 -11 -6 -8 -8 3 -13 12 -11 19 2 8 0 11 -3 7 -4 -4 -25
2 -47 13 -26 13 -47 17 -61 13 -12 -5 -25 -7 -28 -7 -7 2 -69 -93 -69 -107 0
-6 -4 -8 -10 -5 -19 12 -10 -24 10 -38 11 -8 17 -18 12 -23 -4 -5 -3 -6 2 -1
5 4 16 1 25 -7 9 -8 19 -15 24 -15 15 0 107 -54 107 -63 0 -4 6 -8 14 -8 22 0
85 -43 86 -58 0 -7 -6 -15 -14 -18 -8 -3 -12 -12 -9 -20 3 -8 1 -14 -3 -14 -8
0 -10 -63 -4 -80 1 -3 2 -14 1 -25 -2 -17 0 -18 9 -5 9 13 13 12 28 -5 10 -11
22 -21 27 -21 6 -1 44 -11 85 -22 85 -23 235 -52 394 -78 130 -20 291 -15 345
12 28 14 35 14 43 3 8 -12 9 -11 5 1 -5 21 53 46 66 28 6 -10 8 -9 4 3 -3 10
3 20 16 27 39 17 92 66 95 87 2 11 7 22 10 25 4 3 9 14 10 25 6 32 42 109 48
102 4 -3 13 0 21 8 16 16 63 20 63 6 0 -5 7 -11 16 -13 8 -2 26 -30 39 -62 13
-33 31 -64 39 -68 8 -5 21 -15 29 -23 8 -8 16 -13 18 -11 8 7 178 14 177 7 -1
-3 8 -29 21 -57 30 -69 65 -88 146 -81 80 8 85 9 79 19 -3 4 -1 8 4 8 17 0 43
70 63 163 10 50 23 93 29 97 7 4 11 11 10 16 -3 15 34 64 48 64 6 0 12 4 12
10 0 17 153 72 230 82 14 2 31 7 38 11 6 5 12 5 12 0 0 -4 4 -2 9 6 6 9 28 14
59 15 27 1 48 4 45 8 -2 5 10 8 27 8 40 0 80 24 106 61 10 16 22 29 27 29 4 0
7 7 7 16 0 19 68 87 80 79 5 -3 11 -1 15 5 8 14 85 13 139 -2 38 -10 48 -9 69
5 15 10 27 28 29 44 2 16 8 27 15 26 7 -2 10 4 6 13 -5 13 -7 13 -14 2 -9 -14
-9 -14 -14 32 -2 22 14 40 31 33 8 -3 14 1 14 11 0 20 14 21 30 1 12 -14 16
-13 40 10 14 14 30 22 34 18 4 -4 4 0 1 9 -4 11 1 21 14 30 12 7 21 19 21 26
0 7 5 10 10 7 6 -3 10 -1 10 5 0 6 5 8 12 4 6 -4 8 -3 5 3 -4 6 5 21 18 33 14
13 25 20 25 16 0 -4 10 3 23 16 12 13 51 48 87 78 35 30 85 76 110 103 25 26
52 47 60 47 7 0 10 3 7 6 -4 4 10 24 31 45 20 22 46 50 57 64 11 14 26 25 33
25 7 0 10 5 7 10 -7 12 48 92 58 85 4 -3 5 -2 3 1 -7 9 54 104 65 104 6 0 8 3
5 8 -2 4 2 16 10 26 10 15 14 16 18 5 5 -18 32 -126 40 -160 5 -23 10 -26 38
-23 18 2 41 7 51 10 10 3 26 0 35 -8 15 -12 16 -11 4 4 -10 12 -10 18 -1 23 8
5 10 26 6 61 -4 40 -2 54 9 58 8 3 17 7 21 8 4 2 16 11 27 20 63 54 82 68 89
68 5 0 16 7 25 16 24 25 27 4 13 -95 -21 -146 -30 -168 -63 -162 -5 0 -8 -3
-8 -8 0 -4 -21 -14 -47 -21 -27 -8 -57 -19 -69 -27 -11 -7 -24 -10 -29 -6 -4
5 -5 3 -1 -4 3 -6 2 -14 -4 -18 -6 -3 -10 -46 -10 -97 0 -102 -19 -226 -32
-206 -4 7 -8 9 -8 3 0 -27 21 -38 83 -41 l66 -3 52 50 c28 27 56 46 62 42 5
-3 7 -1 4 4 -7 11 30 50 42 46 3 -2 6 0 6 5 0 10 54 62 64 62 5 0 17 12 26 28
10 15 29 37 42 49 12 12 23 26 23 30 0 5 13 23 30 41 16 18 29 34 29 35 -3 7
45 77 52 77 5 0 8 3 7 8 -2 12 20 60 32 67 5 3 8 11 5 16 -4 5 -1 9 4 9 6 0
10 3 9 7 -3 15 14 63 22 63 5 0 9 8 8 18 0 9 5 52 11 95 13 84 10 154 -9 229
-7 26 -10 55 -6 63 3 9 2 14 -3 11 -9 -6 -26 22 -23 36 1 4 -15 10 -36 13 -20
4 -41 8 -47 10 -5 1 -17 -4 -27 -12 -20 -18 -78 -28 -78 -14 0 6 5 11 12 11 6
0 9 3 5 6 -3 3 13 29 36 57 23 29 53 69 65 90 13 20 28 34 34 31 7 -4 8 -2 4
4 -8 13 40 102 55 102 5 0 9 12 9 26 0 21 4 25 18 19 13 -4 14 -3 6 5 -9 9 -5
25 14 63 13 29 30 68 37 87 6 19 23 41 36 47 13 7 18 13 12 13 -7 0 -13 9 -13
20 0 29 22 70 33 63 6 -3 7 -1 3 6 -8 12 5 57 32 121 9 19 17 41 18 48 8 41
39 110 47 105 6 -4 8 0 4 9 -7 19 47 138 63 138 6 0 8 4 5 10 -3 5 -1 10 4 10
6 0 11 6 11 13 0 7 13 26 29 41 32 31 71 111 77 160 9 79 17 108 30 113 8 3
14 13 12 22 -1 9 4 40 11 69 7 30 11 70 8 91 -3 26 1 43 13 59 10 12 21 42 24
67 4 25 10 43 14 41 4 -2 7 8 8 22 0 15 10 74 23 132 18 82 23 135 22 240 -1
140 8 197 29 192 6 -1 10 3 8 10 -3 7 8 37 24 66 19 37 28 69 28 101 l0 46 20
-25 c11 -14 20 -21 20 -17 0 5 10 1 22 -7 33 -23 35 -21 42 32 16 119 16 151
-1 145 -11 -4 -14 -2 -9 5 5 8 1 9 -16 3 -13 -4 -29 -20 -36 -34 -7 -15 -18
-27 -23 -27 -6 0 -8 -3 -5 -8 2 -4 -2 -16 -10 -26 -12 -18 -16 -18 -40 -5 -51
27 -55 43 -52 220 3 161 3 163 20 129 9 -19 14 -38 11 -42 -9 -15 22 -35 42
-27 11 4 17 8 13 8 -3 1 7 15 24 31 16 17 35 27 41 24 9 -5 9 -4 0 6 -8 9 -9
20 -1 39 6 14 9 64 8 111 -6 160 -5 215 3 247 7 28 6 32 -12 30 -11 0 -18 -4
-16 -7 2 -4 -9 -14 -25 -23 -44 -26 -45 -3 -3 33 21 18 33 30 26 26 -6 -3 -2
12 8 34 11 22 17 45 14 49 -3 5 1 12 7 15 7 3 0 4 -17 1 -16 -3 -36 -6 -42 -7
-7 -1 -13 -5 -13 -9 0 -8 -79 -33 -85 -27 -2 2 -4 14 -6 28 -4 32 18 73 36 67
8 -4 11 1 8 13 -3 11 4 24 17 33 24 17 24 52 1 76 -16 18 -10 139 9 151 6 4
11 9 10 11 -4 9 13 80 20 84 4 2 5 16 3 30 -4 18 -15 27 -42 35 -20 5 -42 10
-48 10 -7 0 -13 5 -13 11 0 5 3 8 8 6 4 -3 5 14 4 37 -3 29 -8 43 -18 43 -8 0
-14 -3 -14 -7 0 -8 -68 -28 -92 -27 -10 0 -14 6 -10 15 3 9 1 13 -5 9 -12 -8
-27 20 -24 43 1 12 0 12 -7 1 -7 -9 -12 -10 -16 -2 -4 6 -11 9 -16 6 -29 -18
-89 49 -93 105 -1 11 -5 20 -10 20 -4 0 -5 5 -2 10 3 6 1 10 -4 10 -6 0 -11 7
-11 15 0 8 -4 15 -10 15 -5 0 -10 5 -10 10 0 6 -21 30 -46 55 -43 43 -62 57
-49 35 4 -6 -7 -16 -24 -23 -17 -7 -29 -16 -25 -19 3 -4 -3 -4 -15 -1 -19 5
-25 15 -22 36 0 4 -3 7 -7 7 -5 0 -21 27 -36 60 -23 49 -26 63 -16 75 8 9 8
15 2 15 -6 0 -12 -6 -15 -12 -2 -7 -14 10 -26 37 -13 28 -34 73 -47 101 -12
29 -20 55 -17 58 4 3 0 6 -7 6 -7 0 -11 3 -7 6 12 12 -22 34 -48 32 -21 -2
-26 -7 -23 -28 1 -14 -1 -31 -5 -37 -5 -8 -3 -11 5 -8 15 6 55 -82 43 -93 -4
-4 -10 -2 -12 4 -2 7 -13 10 -23 7 -12 -3 -22 1 -26 10 -3 9 -12 13 -19 11 -8
-3 -16 4 -20 18 -4 13 -14 31 -23 41 -8 9 -11 17 -6 17 5 0 2 5 -6 10 -13 9
-13 10 0 10 14 1 -25 22 -44 24 -5 1 -14 10 -20 21 -6 11 -26 34 -45 51 -21
21 -30 37 -25 46 4 7 3 10 -1 5 -9 -8 -45 20 -45 35 0 5 -9 18 -20 30 -10 12
-17 24 -15 28 3 5 -2 11 -11 14 -9 4 -14 13 -10 21 3 8 1 15 -3 15 -5 0 -18
15 -29 32 -16 24 -18 35 -9 40 8 5 6 8 -7 8 -15 0 -16 3 -6 15 11 13 10 14 -3
10 -13 -6 -27 14 -32 45 0 3 -9 17 -19 32 -10 15 -14 33 -10 39 4 7 3 9 -3 6
-11 -7 -70 52 -65 66 1 4 -2 7 -7 7 -14 0 -81 73 -81 88 0 7 -4 11 -9 8 -11
-7 -35 49 -27 63 3 5 2 11 -4 13 -9 3 -38 96 -44 143 -1 11 -10 37 -19 57 -10
21 -18 49 -19 63 -1 14 -6 25 -10 25 -7 0 -23 41 -20 53 1 4 -3 7 -9 7 -5 0
-7 5 -4 10 4 6 1 9 -7 8 -7 -2 -12 4 -10 12 2 8 0 12 -4 8 -4 -4 -13 -3 -20 3
-16 13 -120 41 -153 41 -13 0 -30 -7 -39 -15 -16 -16 -10 -30 58 -151 22 -41
15 -69 -11 -44 -8 8 -22 17 -32 21 -11 4 -15 12 -11 18 4 8 3 9 -4 5 -15 -9
-55 18 -44 29 4 5 2 5 -5 1 -7 -4 -21 2 -33 14 -11 11 -20 17 -20 13 0 -3 -10
3 -23 15 -22 21 -24 21 -37 4 -18 -22 -24 -46 -11 -37 11 6 47 -42 39 -51 -3
-3 -13 2 -22 11 -9 9 -16 14 -16 10 0 -3 -13 2 -30 12 -16 9 -30 21 -30 25 0
4 -7 8 -15 8 -9 0 -18 7 -21 15 -4 8 -13 15 -20 15 -8 0 -17 7 -20 15 -4 8
-10 12 -15 9 -5 -3 -9 -1 -9 4 0 5 -9 12 -21 15 -12 3 -19 10 -15 15 3 5 0 9
-7 9 -17 0 -117 72 -117 85 0 5 -4 7 -9 3 -5 -3 -16 4 -24 15 -7 11 -17 17
-20 14 -4 -4 -9 1 -13 10 -3 9 -12 16 -20 16 -8 0 -14 7 -14 16 0 9 -9 18 -20
21 -20 5 -37 58 -28 85 5 15 -27 43 -74 62 l-33 15 58 26 c32 15 57 29 55 30
-2 2 -46 19 -98 38 -70 26 -95 39 -94 51 2 13 -1 14 -11 6 -10 -8 -17 -6 -27
7 -7 10 -25 24 -40 32 -15 8 -25 18 -22 23 3 5 2 8 -3 7 -4 -1 -10 0 -13 1 -3
1 -12 3 -20 5 -68 18 -106 29 -110 34 -7 8 -199 7 -194 -1 2 -4 -2 -10 -9 -15
-7 -4 -20 -17 -28 -28 -15 -22 -31 -28 -69 -27 -84 2 -447 24 -458 28 -10 3
-10 8 0 23 10 16 15 18 28 8 13 -10 13 -10 2 5 -11 13 -9 24 9 62 12 26 25 49
30 52 5 3 9 10 9 15 0 6 -4 8 -9 5 -5 -3 -12 1 -15 10 -3 8 -10 13 -15 10 -10
-6 -142 52 -152 67 -4 5 -11 7 -16 4 -15 -9 -68 9 -65 22 2 13 -5 15 -12 2z"/>
<path d="M6390 8480 c0 -5 5 -10 11 -10 5 0 7 5 4 10 -3 6 -8 10 -11 10 -2 0
-4 -4 -4 -10z"/>
<path d="M6312 8448 c-7 -7 -12 -18 -12 -25 0 -7 -5 -13 -10 -13 -7 0 -7 -6 0
-20 6 -11 17 -20 25 -20 7 0 21 -7 29 -16 9 -8 16 -13 16 -10 0 3 27 -8 60
-25 62 -31 90 -32 90 -4 0 8 4 15 9 15 5 0 8 7 7 16 -1 9 -41 33 -99 58 -54
23 -94 45 -90 49 3 4 2 7 -3 7 -6 0 -15 -5 -22 -12z"/>
<path d="M2067 8120 c3 -11 7 -20 9 -20 2 0 4 9 4 20 0 11 -4 20 -9 20 -5 0
-7 -9 -4 -20z"/>
<path d="M6876 8077 c3 -10 9 -15 12 -12 3 3 0 11 -7 18 -10 9 -11 8 -5 -6z"/>
<path d="M844 6655 c-12 -13 -19 -26 -16 -29 3 -3 -3 -6 -13 -6 -10 0 -16 -3
-12 -6 3 -4 0 -13 -8 -21 -20 -20 -19 -56 3 -83 25 -31 60 -21 91 24 23 35 23
39 9 134 -2 19 -31 12 -54 -13z"/>
<path d="M1035 6240 c3 -5 8 -10 11 -10 2 0 4 5 4 10 0 6 -5 10 -11 10 -5 0
-7 -4 -4 -10z"/>
<path d="M340 5925 c-13 -24 -26 -42 -29 -39 -2 2 -11 -15 -19 -38 -8 -24 -21
-51 -30 -60 -8 -10 -12 -18 -9 -18 3 0 -8 -29 -25 -66 -17 -36 -45 -108 -62
-160 -18 -52 -36 -91 -41 -87 -4 5 -5 3 -2 -4 8 -12 -23 -156 -34 -161 -3 -1
-4 -14 -1 -27 2 -15 0 -25 -7 -25 -7 0 -10 -4 -6 -9 3 -6 1 -50 -5 -98 -14
-126 -18 -334 -5 -330 5 2 26 68 45 146 20 81 39 139 44 134 5 -4 6 -3 2 4 -4
7 1 48 10 92 12 58 21 78 31 74 7 -3 13 -1 13 5 0 6 -5 12 -10 14 -11 3 45
243 70 303 7 17 14 35 16 40 1 6 23 68 48 139 25 71 46 131 46 133 0 1 7 3 15
3 8 0 15 5 15 11 0 5 -5 7 -11 3 -7 -4 -10 -1 -7 7 3 8 11 13 18 11 11 -3 11
0 0 12 -9 12 -9 16 -1 16 7 0 9 5 6 10 -3 6 -16 10 -28 10 -16 0 -29 -13 -47
-45z"/>
<path d="M430 5814 c0 -8 -4 -12 -10 -9 -5 3 -7 0 -4 -8 2 -7 -1 -27 -7 -43
-7 -16 -11 -35 -10 -41 1 -7 -2 -21 -8 -30 -13 -26 21 -67 49 -58 11 4 18 11
15 16 -4 5 1 9 10 9 9 0 14 4 11 8 -3 5 2 22 11 38 21 40 24 114 4 106 -10 -4
-12 -1 -6 8 5 8 4 11 -3 6 -6 -3 -13 -2 -17 4 -10 16 -35 12 -35 -6z"/>
<path d="M681 5691 c-8 -5 -9 -11 -3 -15 5 -3 12 1 16 9 6 17 6 18 -13 6z"/>
<path d="M325 5413 c-5 -10 -9 -24 -11 -31 -6 -30 -58 -142 -65 -142 -5 0 -5
-7 -2 -17 5 -12 3 -14 -7 -8 -8 5 -11 3 -8 -6 3 -8 -5 -43 -18 -79 -36 -107
-47 -178 -40 -270 7 -96 17 -142 33 -147 6 -2 14 10 18 27 4 16 10 28 15 25 5
-3 11 -1 15 5 3 5 2 10 -3 10 -8 0 37 146 65 210 3 8 7 17 7 20 1 3 5 11 10
18 4 7 6 16 3 18 -8 8 14 78 27 86 8 6 7 8 -2 8 -8 0 -10 5 -5 13 4 6 9 21 10
32 2 10 9 23 16 27 6 4 9 8 5 8 -4 0 0 19 8 43 19 53 16 96 -10 125 -11 12
-15 22 -10 22 13 0 -19 20 -32 20 -7 0 -15 -8 -19 -17z"/>
<path d="M8820 4659 c0 -5 5 -7 10 -4 6 3 10 8 10 11 0 2 -4 4 -10 4 -5 0 -10
-5 -10 -11z"/>
<path d="M8451 2802 c4 -22 -3 -41 -21 -60 -12 -12 -16 -22 -11 -22 5 0 2 -24
-9 -54 -19 -56 -30 -173 -17 -193 4 -6 4 -19 0 -29 -4 -12 -3 -15 5 -10 8 5
12 0 12 -12 0 -24 33 -54 51 -47 15 6 17 9 71 117 33 65 34 68 26 145 -5 43
-10 84 -10 91 -1 6 -5 12 -9 12 -5 0 -5 7 -2 17 4 10 2 14 -4 10 -6 -4 -16 0
-22 7 -10 11 -9 16 4 24 12 6 6 9 -24 10 -23 1 -40 -1 -40 -6z"/>
<path d="M8010 2351 c0 -6 4 -12 8 -15 5 -3 9 1 9 9 0 8 -4 15 -9 15 -4 0 -8
-4 -8 -9z"/>
<path d="M8374 2243 c3 -6 -1 -19 -10 -27 -8 -9 -12 -16 -7 -16 4 0 -4 -8 -18
-18 -14 -9 -24 -23 -22 -29 3 -7 0 -13 -6 -13 -6 0 -11 -6 -11 -14 0 -7 -10
-21 -22 -30 -13 -9 -16 -14 -8 -10 13 7 13 5 1 -9 -7 -9 -17 -15 -21 -12 -4 3
-11 -2 -14 -11 -4 -10 -2 -13 7 -8 6 4 1 -5 -12 -19 l-24 -27 24 0 c59 1 124
26 145 58 12 17 23 30 25 27 2 -2 5 15 7 38 1 22 7 46 11 51 6 7 -3 25 -21 46
-17 19 -28 30 -24 23z"/>
<path d="M1600 1487 c-31 -24 -60 -76 -60 -107 0 -25 11 -42 50 -81 29 -28 50
-59 51 -72 0 -12 3 -16 6 -9 6 16 33 -3 33 -24 0 -8 6 -13 13 -11 6 1 11 -3
10 -10 -2 -7 3 -10 10 -7 7 2 23 -5 35 -16 12 -11 24 -20 27 -20 22 1 25 -1
19 -12 -4 -6 -3 -8 4 -5 15 10 43 -3 35 -16 -3 -5 -1 -7 5 -3 6 3 18 -1 26
-10 9 -8 16 -12 16 -8 0 4 8 0 18 -9 10 -10 22 -14 25 -10 11 10 8 51 -4 58
-6 4 -8 14 -5 22 4 9 2 11 -5 7 -7 -4 -10 -1 -7 7 3 10 18 13 48 11 36 -3 42
-1 36 13 -3 9 -6 19 -6 21 0 2 -6 4 -14 4 -8 0 -28 16 -45 35 -17 19 -34 35
-39 35 -15 0 -43 36 -35 45 5 4 3 5 -3 2 -7 -4 -43 24 -83 63 -39 39 -73 70
-77 70 -12 0 -33 28 -26 35 4 5 2 5 -5 1 -6 -3 -14 -2 -18 4 -8 13 -16 12 -35
-3z"/>
<path d="M1768 1403 c7 -3 16 -2 19 1 4 3 -2 6 -13 5 -11 0 -14 -3 -6 -6z"/>
<path d="M7233 1338 c-4 -7 -24 -21 -43 -31 -19 -10 -44 -31 -55 -47 -10 -16
-23 -26 -27 -24 -5 3 -7 2 -6 -3 2 -4 -8 -35 -21 -67 l-25 -59 24 -19 c13 -10
26 -15 29 -10 9 13 144 67 158 64 7 -2 13 2 13 8 0 7 8 9 21 5 14 -5 19 -3 15
3 -3 6 3 13 14 17 28 9 25 20 -15 51 -25 19 -34 32 -29 43 4 9 6 24 6 34 0 9
2 15 6 13 4 -3 8 3 8 12 0 19 -31 22 -56 7 -9 -5 -11 -4 -6 3 4 7 5 12 2 12
-3 0 -9 -6 -13 -12z"/>
<path d="M2027 1169 c7 -7 15 -10 18 -7 3 3 -2 9 -12 12 -14 6 -15 5 -6 -5z"/>
<path d="M1945 1140 c-3 -5 -1 -10 4 -10 6 0 11 5 11 10 0 6 -2 10 -4 10 -3 0
-8 -4 -11 -10z"/>
<path d="M6910 1029 c0 -8 -31 -20 -42 -16 -4 1 -15 -8 -23 -20 -9 -13 -20
-23 -26 -23 -5 0 -27 -18 -49 -40 l-41 -41 38 -45 c21 -25 37 -50 35 -56 -1
-5 2 -7 8 -3 5 3 13 0 16 -8 4 -11 15 -12 47 -6 65 12 72 14 77 20 10 12 88
48 94 44 3 -3 4 -2 1 1 -2 4 14 20 35 35 22 16 41 35 41 42 1 6 3 22 4 35 1
12 0 21 -2 18 -3 -3 -15 5 -27 17 -11 12 -28 23 -36 25 -8 2 -18 8 -21 14 -4
6 -11 8 -15 6 -5 -3 -33 -2 -61 1 -29 4 -53 4 -53 0z"/>
<path d="M2149 986 c-7 -36 9 -96 25 -96 7 0 17 -10 22 -22 6 -13 9 -16 7 -8
-2 8 7 3 19 -11 13 -14 31 -28 41 -32 10 -4 15 -12 12 -17 -4 -6 -3 -9 2 -8
12 4 54 -28 46 -35 -3 -4 1 -7 11 -7 9 0 19 -7 22 -15 4 -8 10 -13 14 -10 10
6 41 -35 35 -45 -2 -4 2 -7 10 -7 8 0 11 5 8 10 -4 6 -1 7 8 2 7 -5 21 -10 30
-10 16 -1 16 2 2 44 -8 25 -15 55 -14 66 0 13 -2 16 -8 7 -5 -9 -22 4 -58 43
-28 30 -54 55 -58 55 -11 0 -34 27 -30 34 3 3 2 4 -1 1 -4 -2 -23 8 -43 24
-33 26 -100 50 -102 37z"/>
<path d="M2938 598 c-43 -18 -51 -82 -18 -136 11 -18 17 -38 14 -44 -4 -7 -2
-8 4 -4 6 4 31 -2 55 -13 59 -27 148 -28 212 -3 27 11 51 24 52 29 2 6 -14 33
-36 61 -22 27 -37 53 -33 57 4 4 3 6 -3 4 -20 -5 -66 24 -60 39 4 12 3 13 -10
2 -8 -7 -15 -8 -15 -3 0 5 -8 9 -17 10 -10 0 -40 3 -68 7 -28 3 -62 0 -77 -6z"/>
<path d="M3710 563 c0 -6 8 -17 18 -24 16 -13 16 -13 2 6 -8 11 -16 22 -17 24
-2 2 -3 0 -3 -6z"/>
<path d="M2990 339 c0 -5 5 -7 10 -4 6 3 10 8 10 11 0 2 -4 4 -10 4 -5 0 -10
-5 -10 -11z"/>
<path d="M3540 339 c0 -5 5 -7 10 -4 6 3 10 8 10 11 0 2 -4 4 -10 4 -5 0 -10
-5 -10 -11z"/>
</g>
</svg>
