<?xml version="1.0" standalone="no"?>
<svg version="1.0" xmlns="http://www.w3.org/2000/svg" width="512.000000px" height="512.000000px" viewBox="0 0 512.000000 512.000000">
<style>@media (prefers-color-scheme: dark) { g {fill: hsla(36, 32%, 18%, 1)} }</style>
<g transform="translate(0.000000,512.000000) scale(0.100000,-0.100000)" fill="hsla(38, 33%, 22.8%, 1)" stroke="none">
<path d="M2487 5030 c-205 -36 -337 -145 -406 -336 -80 -219 -33 -480 113 -624 94 -92 184 -130 315 -130 308 0 551 231 569 541 15 261 -124 467 -358 533 -72 20 -173 27 -233 16z"/>
<path d="M2332 3589 c-89 -15 -206 -67 -299 -132 -98 -70 -463 -424 -463 -450 0 -9 41 -59 91 -111 l91 -95 52 39 c67 50 165 96 243 111 111 23 132 -15 120 -220 -9 -146 -41 -317 -167 -891 -169 -767 -190 -891 -190 -1116 0 -152 12 -221 57 -311 87 -178 288 -290 577 -322 276 -31 606 78 785 258 81 82 145 174 250 361 l81 144 -22 23 c-24 26 -187 137 -192 132 -2 -2 -36 -68 -75 -146 -133 -265 -250 -383 -380 -383 -51 0 -74 24 -100 104 -30 91 -42 183 -42 335 0 184 3 204 146 881 46 217 98 467 115 555 38 193 49 376 30 521 -45 364 -278 671 -540 713 -74 12 -94 12 -168 0z"/>
</g>
</svg>
