<?xml version="1.0" standalone="no"?>
<svg version="1.0" xmlns="http://www.w3.org/2000/svg" width="512px" height="512px" viewBox="0 0 5120 5120">
<style>@media (prefers-color-scheme: dark) { g {fill: hsla(36, 32%, 18%, 1)} }</style>
<g transform="scale(1,-1)" fill="hsla(38, 33%, 22.8%, 1)">
<path d="M 2495 -90 c -182 -25 -317 -119 -391 -275 -45 -95 -64 -174 -64 -270 1 -232 104 -422 276 -506 66 -33 73 -34 189 -34 129 0 176 11 285 65 255 128 364 493 230 766 -86 176 -307 283 -525 254 z"/>
<path d="M 2270 -1545 c -75 -21 -163 -64 -237 -116 -96 -69 -245 -203 -335 -303 -45 -50 -95 -105 -111 -122 l -29 -32 97 -101 97 -101 47 42 c 57 50 123 82 230 109 75 19 84 19 106 5 78 -51 48 -325 -109 -1009 -84 -362 -154 -691 -187 -877 -19 -101 -23 -163 -23 -325 -1 -184 1 -205 22 -268 60 -172 175 -273 387 -340 124 -39 219 -50 362 -44 256 10 489 106 649 265 68 68 178 232 262 392 l 61 115 -105 75 c -58 41 -108 74 -111 73 -4 -1 -16 -28 -28 -60 -102 -270 -266 -460 -415 -480 -34 -5 -43 -1 -69 24 -61 61 -97 256 -88 478 6 156 30 287 147 820 117 531 151 716 157 860 9 206 -18 364 -87 512 -83 179 -205 320 -328 381 -73 36 -80 37 -191 39 -80 2 -133 -2 -171 -12 z"/>
</g>
</svg>
