<?xml version="1.0" standalone="no"?>
<svg version="1.0" xmlns="http://www.w3.org/2000/svg" width="512.000000px" height="512.000000px" viewBox="0 0 512.000000 512.000000">
<style>@media (prefers-color-scheme: dark) { g {fill: hsla(36, 32%, 18%, 1)} }</style>
<g transform="translate(0.000000,512.000000) scale(0.100000,-0.100000)" fill="hsla(38, 33%, 22.8%, 1)" stroke="none">
<path d="M2456 5105 c-171 -35 -295 -129 -366 -277 -77 -160 -89 -326 -35 -495 101 -322 411 -441 731 -283 186 91 313 307 313 530 0 78 -26 195 -58 262 -94 198 -349 312 -585 263z"/>
<path d="M2272 3610 c-174 -46 -296 -131 -543 -380 -97 -97 -182 -186 -188 -198 -10 -18 0 -31 87 -122 l97 -102 57 45 c84 65 215 117 299 117 59 0 73 -25 77 -135 6 -155 -34 -390 -158 -935 -88 -388 -170 -780 -196 -945 -22 -139 -25 -416 -5 -495 64 -260 275 -408 642 -451 172 -20 386 18 562 99 188 87 300 193 429 407 65 109 158 279 158 291 0 11 -203 154 -218 154 -5 0 -28 -43 -51 -96 -71 -166 -174 -323 -251 -384 -78 -62 -180 -88 -221 -57 -49 37 -88 191 -96 378 -9 210 0 265 176 1084 50 231 100 473 111 537 77 454 -9 798 -264 1054 -140 139 -310 185 -504 134z"/>
</g>
</svg>
