<?xml version="1.0" standalone="no"?>
<svg version="1.0" xmlns="http://www.w3.org/2000/svg" width="512px" height="512px" viewBox="0 0 5120 5120">
<style>@media (prefers-color-scheme: dark) { g {fill: hsla(36, 32%, 18%, 1)} }</style>
<g transform="scale(1,-1)" fill="hsla(38, 33%, 22.8%, 1)">
<path d="M 2265 -22 c -550 -82 -1010 -361 -1248 -756 -169 -279 -196 -612 -64 -775 90 -110 200 -157 372 -157 134 0 187 14 274 72 82 55 123 113 217 306 123 250 187 340 295 415 206 141 606 143 828 2 101 -63 188 -185 222 -310 8 -30 14 -97 13 -165 0 -103 -3 -123 -30 -191 -64 -160 -174 -283 -442 -495 -63 -49 -126 -98 -141 -109 -160 -118 -332 -280 -411 -385 -57 -76 -116 -191 -142 -275 -25 -78 -35 -261 -19 -337 27 -127 127 -262 228 -309 102 -47 209 -58 328 -36 187 37 251 106 369 405 76 192 135 253 471 492 89 64 166 120 195 143 8 7 44 35 80 62 36 27 121 106 190 175 183 183 281 339 348 550 58 182 57 450 -2 674 -145 550 -654 911 -1411 1001 -131 16 -425 18 -520 3 z"/>
<path d="M 2340 -3980 c -25 -4 -73 -19 -107 -33 -378 -154 -473 -639 -181 -930 112 -111 247 -167 399 -167 161 1 284 54 402 172 95 94 141 183 163 312 13 76 13 96 0 173 -56 327 -346 529 -676 473 z"/>
</g>
</svg>
