<?xml version="1.0" standalone="no"?>
<svg version="1.0" xmlns="http://www.w3.org/2000/svg" width="512px" height="512px" viewBox="0 0 5120 5120">
<style>@media (prefers-color-scheme: dark) { g {fill: hsla(36, 32%, 18%, 1)} }</style>
<g transform="scale(1,-1)" fill="hsla(38, 33%, 22.8%, 1)">
<path d="M 2053 -26 c -1021 -123 -1838 -904 -2012 -1924 -43 -246 -39 -565 10 -815 119 -618 483 -1157 1019 -1507 289 -189 653 -321 982 -357 141 -16 447 -14 585 4 288 37 606 147 873 302 52 31 99 58 103 60 5 3 171 -157 370 -354 199 -198 386 -378 414 -401 138 -107 327 -120 485 -35 57 31 147 123 176 179 80 156 64 344 -41 477 -22 28 -200 213 -394 409 -194 196 -353 364 -353 373 0 9 26 60 57 113 165 280 271 600 304 918 17 171 7 528 -20 669 -131 695 -566 1292 -1191 1632 -165 90 -410 180 -605 223 -228 49 -529 63 -762 34 z m 587 -700 c 188 -35 441 -140 607 -250 141 -94 366 -322 461 -468 84 -130 164 -314 218 -506 25 -89 27 -111 31 -346 4 -204 2 -268 -12 -339 -36 -192 -139 -443 -252 -614 -66 -100 -313 -353 -413 -424 -215 -151 -521 -264 -779 -288 -784 -72 -1480 386 -1726 1135 -53 163 -66 258 -68 495 -1 179 2 219 21 308 46 212 140 438 253 608 73 110 328 364 440 438 164 108 399 207 589 248 116 24 508 27 630 3 z"/>
<path d="M 1520 -1515 l 0 -205 610 0 610 0 0 205 0 205 -610 0 -610 0 0 -205 z"/>
<path d="M 1520 -2335 l 0 -205 815 0 815 0 0 205 0 205 -815 0 -815 0 0 -205 z"/>
<path d="M 1520 -3155 l 0 -205 405 0 405 0 0 205 0 205 -405 0 -405 0 0 -205 z"/>
</g>
</svg>
