<?xml version="1.0" standalone="no"?>
<svg version="1.0" xmlns="http://www.w3.org/2000/svg" width="512.000000px" height="512.000000px" viewBox="0 0 512.000000 512.000000">
	<g transform="translate(0.000000,512.000000) scale(0.100000,-0.100000)" fill="hsl(60, 92%, 0%)" stroke="none">
		<style>
			rect { fill: hsl(60, 92%, 50%) }
			@media (prefers-color-scheme: dark) { rect { fill: hsl(60, 92%, 40%) } }
		</style>
		<rect width="5120" height="5120" />
		<circle cx="2560" cy="2560" r="2400" fill="hsl(60, 92%, 100%)" />
		<path d="M2375 5014 c-841 -66 -1598 -564 -1990 -1307 -189 -358 -277 -721 -278 -1142 -1 -413 75 -740 260 -1109 145 -292 302 -494 579 -746 345 -314 786 -513 1299 -586 147 -21 477 -24 615 -5 410 55 808 211 1134 443 153 108 430 383 549 542 203 275 352 619 435 1006 25 120 26 137 27 440 0 347 -4 382 -70 637 -152 582 -520 1097 -1016 1423 -306 201 -711 350 -1054 389 -101 11 -414 21 -490 15z m-237 -1046 l-3 -320 -80 -45 c-543 -305 -560 -315 -536 -332 12 -9 156 -93 319 -186 l297 -171 3 -307 c1 -170 -1 -321 -5 -337 l-8 -29 -300 180 c-165 100 -404 244 -531 321 l-232 141 -6 45 c-3 24 -6 205 -6 401 l0 357 537 323 c505 303 538 321 545 300 5 -12 7 -165 6 -341z m1792 22 c17 -80 39 -161 49 -180 30 -59 90 -88 251 -120 79 -16 145 -32 147 -34 3 -2 -22 -10 -54 -16 -165 -33 -237 -51 -269 -66 -68 -32 -96 -92 -129 -279 -18 -100 -25 -128 -31 -122 -2 2 -15 59 -29 128 -55 272 -52 269 -398 339 -32 6 -57 13 -55 15 2 2 68 18 148 35 177 37 218 59 254 132 14 29 37 116 52 193 15 76 29 135 31 130 1 -6 16 -75 33 -155z m-788 -16 c8 -8 -35 -133 -282 -819 -282 -784 -306 -854 -490 -1395 l-158 -465 -100 -3 -101 -3 23 68 c355 1024 645 1852 781 2233 65 179 122 340 128 358 l10 32 92 0 c50 0 94 -3 97 -6z m1033 -1961 l0 -398 -535 -321 c-355 -214 -537 -318 -542 -310 -4 6 -8 160 -8 341 l0 330 325 180 c178 99 321 182 317 186 -4 4 -150 87 -324 185 l-318 178 0 331 c0 182 3 334 6 338 3 3 247 -140 542 -318 l537 -323 0 -399z m-2760 -143 c48 -249 70 -272 307 -321 79 -16 147 -31 153 -32 5 -2 -42 -13 -105 -26 -218 -42 -271 -65 -303 -134 -12 -25 -77 -299 -77 -325 0 -25 -14 27 -39 145 -36 170 -49 203 -92 235 -42 32 -73 41 -228 73 -69 14 -126 27 -129 29 -2 2 23 10 55 16 260 52 313 74 346 143 11 21 33 105 50 187 17 83 32 149 33 147 2 -2 15 -63 29 -137z"/>
	</g>
</svg>
