<?xml version="1.0" standalone="no"?>
<svg version="1.0" xmlns="http://www.w3.org/2000/svg" width="500.000000px" height="500.000000px" viewBox="0 0 500.000000 500.000000">
	<g transform="translate(0.000000,500.000000) scale(0.100000,-0.100000)" fill="#000000" stroke="none">
		<path d="M2385 4440 c-151 -13 -300 -57 -449 -133 -326 -166 -561 -472 -641 -837 -26 -118 -31 -327 -11 -443 69 -405 312 -737 670 -912 184 -91 338 -126 546 -126 208 0 362 35 545 125 359 177 602 507 671 913 20 116 15 325 -11 443 -80 364 -314 670 -641 837 -211 108 -438 152 -679 133z m-97 -512 l-3 -171 -154 -86 c-85 -47 -154 -90 -154 -95 1 -5 70 -48 155 -95 l153 -86 3 -173 c2 -142 0 -172 -11 -165 -7 4 -131 79 -275 166 l-262 159 0 196 0 197 268 162 c147 89 270 162 275 162 4 1 6 -76 5 -171z m902 -21 c16 -89 42 -111 146 -128 81 -13 81 -22 -1 -34 -109 -15 -135 -42 -150 -150 -11 -83 -21 -83 -34 -1 -14 85 -43 131 -89 140 -15 3 -54 10 -87 17 l-60 12 74 14 c82 16 126 34 140 61 5 9 15 52 22 95 14 85 19 82 39 -26z m-400 4 c0 -6 -69 -202 -154 -438 -84 -235 -189 -533 -232 -660 l-79 -233 -47 0 c-27 0 -48 3 -48 6 0 9 253 738 371 1072 l94 262 47 0 c27 0 48 -4 48 -9z m252 -610 l263 -159 3 -200 2 -199 -269 -161 c-148 -89 -272 -162 -275 -162 -4 0 -5 77 -4 171 l3 171 163 91 163 90 -163 92 -163 92 -3 167 c-2 107 1 166 8 166 5 0 128 -72 272 -159z m-1084 -537 c14 -27 48 -41 137 -58 l70 -13 -60 -12 c-33 -7 -72 -14 -86 -17 -46 -9 -70 -46 -89 -136 -18 -89 -18 -89 -41 26 -14 76 -39 101 -115 115 -115 23 -115 23 -27 40 90 18 128 44 137 90 3 14 10 53 17 86 l12 60 17 -80 c8 -44 21 -90 28 -101z"/>
		<path d="M1425 1851 c-166 -27 -244 -157 -178 -296 52 -109 277 -151 422 -78 54 27 56 29 53 63 -5 44 -8 47 -30 27 -40 -36 -106 -57 -182 -57 -131 0 -190 45 -190 144 0 58 42 110 103 127 65 17 174 7 240 -24 l57 -26 0 43 0 43 -57 16 c-74 21 -174 28 -238 18z"/>
		<path d="M1750 1843 c0 -1 45 -57 100 -124 l100 -122 0 -74 0 -73 45 0 45 0 0 72 c0 70 1 73 47 132 26 34 71 89 100 123 29 33 53 63 53 66 0 2 -24 3 -52 2 l-53 -3 -65 -90 c-36 -50 -69 -90 -74 -88 -5 1 -38 42 -73 91 l-64 88 -54 2 c-30 1 -55 0 -55 -2z"/>
		<path d="M2280 1649 l0 -201 183 4 c162 3 186 5 217 24 96 56 68 151 -50 172 l-45 8 36 7 c58 12 89 42 89 86 0 79 -60 100 -282 101 l-148 0 0 -201z m321 112 c24 -29 24 -33 0 -62 -17 -21 -28 -24 -125 -27 l-106 -4 0 54 c0 30 3 58 8 62 4 5 51 6 106 4 88 -3 100 -6 117 -27z m-7 -151 c39 -14 50 -43 27 -72 -18 -22 -26 -23 -133 -23 l-113 0 -3 53 -3 52 100 0 c55 0 111 -4 125 -10z"/>
		<path d="M2813 1651 l0 -201 213 0 214 0 0 41 0 42 -37 -6 c-21 -4 -95 -9 -165 -13 l-128 -7 0 57 0 57 145 -3 145 -3 0 34 0 34 -145 -7 -145 -8 0 62 0 63 93 -7 c50 -3 125 -9 165 -12 l72 -6 0 36 0 36 -184 0 c-101 0 -197 3 -213 6 l-30 6 0 -201z"/>
		<path d="M3320 1849 c-1 -2 -2 -93 -3 -202 l-2 -197 48 0 47 0 0 76 0 77 65 -6 c35 -3 78 -13 94 -21 37 -19 71 -62 78 -98 5 -27 8 -28 70 -28 l64 0 -15 29 c-22 41 -102 108 -138 117 -36 7 -24 18 34 28 20 4 50 20 67 35 26 24 31 37 31 73 0 49 -21 77 -75 99 -27 11 -364 27 -365 18z m293 -70 c76 -21 69 -96 -10 -118 -21 -6 -73 -11 -115 -11 l-78 0 0 70 0 70 83 0 c45 0 99 -5 120 -11z"/>
		<path d="M552 1297 c-32 -34 -30 -89 4 -116 30 -24 81 -27 108 -8 16 12 16 15 3 26 -10 8 -17 9 -22 1 -8 -14 -48 -13 -63 2 -17 17 -15 63 3 78 9 8 28 10 48 6 38 -7 52 1 36 21 -19 22 -92 16 -117 -10z"/>
		<path d="M720 1240 c0 -73 2 -80 20 -80 13 0 20 7 20 20 0 13 7 20 20 20 10 0 24 -9 30 -20 6 -11 20 -20 32 -20 19 0 20 1 4 25 -15 23 -15 27 -1 41 8 8 15 26 15 38 0 37 -30 56 -88 56 l-52 0 0 -80z m98 23 c3 -20 -1 -23 -27 -23 -27 0 -31 4 -31 26 0 22 4 25 28 22 19 -2 28 -9 30 -25z"/>
		<path d="M910 1240 l0 -80 60 0 c47 0 60 3 60 15 0 11 -11 15 -40 15 -33 0 -40 3 -40 20 0 16 7 20 35 20 24 0 35 5 35 15 0 10 -11 15 -35 15 -24 0 -35 5 -35 15 0 11 11 15 40 15 29 0 40 4 40 15 0 12 -13 15 -60 15 l-60 0 0 -80z"/>
		<path d="M1095 1244 c-19 -42 -35 -78 -35 -80 0 -12 39 -2 44 11 8 21 75 20 91 -1 6 -9 18 -15 27 -13 12 3 9 18 -20 82 -46 102 -61 103 -107 1z m70 -1 c5 -19 2 -23 -14 -23 -23 0 -24 3 -15 38 7 26 18 20 29 -15z"/>
		<path d="M1260 1305 c0 -9 9 -15 25 -15 24 0 25 -2 25 -65 0 -58 2 -65 20 -65 18 0 20 7 20 65 0 63 1 65 25 65 16 0 25 6 25 15 0 12 -14 15 -70 15 -56 0 -70 -3 -70 -15z"/>
		<path d="M1430 1240 c0 -73 2 -80 20 -80 18 0 20 7 20 80 0 73 -2 80 -20 80 -18 0 -20 -7 -20 -80z"/>
		<path d="M1513 1308 c71 -181 80 -186 132 -72 19 42 35 78 35 80 0 2 -8 4 -19 4 -13 0 -25 -16 -42 -57 l-23 -58 -25 58 c-17 42 -29 57 -44 57 -11 0 -17 -5 -14 -12z"/>
		<path d="M1710 1240 l0 -80 65 0 c51 0 65 3 65 15 0 11 -12 15 -45 15 -38 0 -45 3 -45 20 0 17 7 20 41 20 52 0 48 24 -4 28 -24 2 -37 8 -37 18 0 10 13 14 45 14 33 0 45 4 45 15 0 12 -14 15 -65 15 l-65 0 0 -80z"/>
		<path d="M1960 1312 c0 -4 11 -39 23 -78 18 -53 29 -70 44 -72 17 -3 24 6 38 47 9 28 18 51 20 51 2 0 11 -23 20 -51 14 -41 21 -50 38 -47 16 2 26 20 45 76 13 40 22 76 18 79 -13 14 -34 -9 -46 -51 -7 -25 -16 -46 -20 -46 -5 0 -13 23 -20 51 -10 42 -16 50 -33 47 -14 -2 -25 -17 -38 -53 l-17 -50 -11 28 c-6 15 -14 39 -17 52 -6 23 -44 37 -44 17z"/>
		<path d="M2250 1240 l0 -80 65 0 c51 0 65 3 65 15 0 11 -12 15 -45 15 -38 0 -45 3 -45 20 0 17 7 20 41 20 52 0 48 24 -4 28 -24 2 -37 8 -37 18 0 10 13 14 45 14 33 0 45 4 45 15 0 12 -14 15 -65 15 l-65 0 0 -80z"/>
		<path d="M2430 1240 l0 -80 58 0 c32 0 63 5 70 12 15 15 16 54 2 63 -7 4 -7 12 0 25 13 24 13 26 -6 44 -10 11 -34 16 -70 16 l-54 0 0 -80z m98 33 c2 -9 -8 -13 -32 -13 -26 0 -36 4 -36 16 0 19 61 16 68 -3z m1 -52 c22 -14 3 -31 -35 -31 -32 0 -45 16 -27 33 9 10 45 8 62 -2z"/>
		<path d="M2700 1240 l0 -80 54 0 c72 0 106 26 106 80 0 54 -34 80 -106 80 l-54 0 0 -80z m116 25 c15 -23 15 -27 0 -50 -11 -17 -26 -25 -46 -25 -29 0 -30 1 -30 50 0 49 1 50 30 50 20 0 35 -8 46 -25z"/>
		<path d="M2910 1240 l0 -80 60 0 c47 0 60 3 60 15 0 11 -11 15 -40 15 -33 0 -40 3 -40 20 0 16 7 20 35 20 24 0 35 5 35 15 0 10 -11 15 -35 15 -24 0 -35 5 -35 15 0 11 11 15 40 15 29 0 40 4 40 15 0 12 -13 15 -60 15 l-60 0 0 -80z"/>
		<path d="M3094 1243 c45 -106 62 -108 104 -12 37 82 38 89 16 89 -9 0 -24 -20 -36 -50 -11 -27 -24 -50 -27 -50 -4 0 -17 23 -28 50 -16 37 -27 50 -42 50 -19 0 -19 -4 13 -77z"/>
		<path d="M3270 1240 l0 -80 65 0 c51 0 65 3 65 15 0 11 -12 15 -45 15 -38 0 -45 3 -45 20 0 16 7 20 35 20 24 0 35 5 35 15 0 10 -11 15 -35 15 -24 0 -35 5 -35 15 0 11 11 15 40 15 29 0 40 4 40 15 0 12 -13 15 -60 15 l-60 0 0 -80z"/>
		<path d="M3440 1240 l0 -80 60 0 c47 0 60 3 60 15 0 11 -11 15 -40 15 l-40 0 0 65 c0 58 -2 65 -20 65 -18 0 -20 -7 -20 -80z"/>
		<path d="M3611 1294 c-28 -36 -27 -79 4 -109 62 -63 175 1 144 82 -14 38 -38 52 -86 53 -33 0 -46 -5 -62 -26z m103 -20 c21 -20 20 -43 -1 -66 -32 -36 -83 -17 -83 32 0 14 5 31 12 38 17 17 54 15 72 -4z"/>
		<path d="M3810 1240 c0 -73 2 -80 20 -80 13 0 20 7 20 19 0 15 10 21 40 26 41 7 60 27 60 63 0 33 -32 52 -88 52 l-52 0 0 -80z m98 23 c3 -20 -1 -23 -27 -23 -27 0 -31 4 -31 26 0 22 4 25 28 22 19 -2 28 -9 30 -25z"/>
		<path d="M4000 1240 l0 -80 60 0 c47 0 60 3 60 15 0 11 -12 15 -46 15 -38 0 -45 3 -42 18 2 12 14 18 41 20 53 5 51 32 -3 32 -29 0 -40 4 -40 15 0 11 12 15 45 15 33 0 45 4 45 15 0 12 -13 15 -60 15 l-60 0 0 -80z"/>
		<path d="M4170 1240 c0 -73 2 -80 20 -80 13 0 20 7 20 20 0 12 7 20 18 20 9 0 23 -9 30 -20 7 -11 22 -20 33 -20 21 0 21 1 4 26 -15 23 -15 27 -1 43 41 46 5 91 -72 91 l-52 0 0 -80z m95 25 c0 -14 -8 -21 -27 -23 -24 -3 -28 0 -28 23 0 23 4 26 28 23 19 -2 27 -9 27 -23z"/>
		<path d="M4362 1308 c-16 -16 -16 -54 1 -65 6 -4 25 -12 41 -18 16 -5 32 -16 34 -24 4 -11 -5 -13 -42 -9 -40 5 -47 3 -44 -11 5 -26 89 -28 112 -2 26 29 13 58 -35 72 -52 16 -53 42 -1 37 28 -2 37 1 37 12 0 19 -85 26 -103 8z"/>
		<path d="M1757 1050 c-65 -12 -115 -39 -151 -84 -29 -35 -31 -44 -31 -116 0 -72 2 -81 31 -116 58 -72 173 -107 290 -87 81 14 130 39 168 87 29 35 31 44 31 115 0 70 -3 81 -29 115 -53 70 -188 107 -309 86z m178 -76 c94 -45 99 -194 8 -247 -71 -41 -192 -30 -244 22 -51 52 -51 148 2 200 49 50 159 61 234 25z"/>
		<path d="M1042 849 l0 -199 50 0 49 0 -7 74 -7 75 34 6 c19 3 79 5 134 3 l100 -3 3 -77 3 -78 51 0 c47 0 50 1 44 23 -3 12 -6 101 -6 197 l0 175 -45 1 -45 1 0 -87 0 -87 -64 -6 c-35 -3 -96 -3 -136 0 l-72 6 3 85 4 85 -46 2 -47 2 0 -198z"/>
		<path d="M2180 1045 c-1 0 -2 -89 -3 -198 l-2 -197 49 0 49 0 -6 150 c-4 83 -5 150 -2 150 5 0 8 -7 84 -180 l50 -115 43 -3 44 -3 53 123 c84 197 80 196 81 26 l0 -148 48 0 47 0 -2 197 -2 196 -67 0 -67 0 -32 -79 c-17 -43 -48 -113 -67 -154 -34 -72 -36 -74 -46 -50 -6 14 -35 83 -65 154 l-53 129 -67 1 c-37 1 -67 1 -67 1z"/>
		<path d="M2810 848 l0 -198 50 0 50 0 0 198 0 198 -50 0 -50 0 0 -198z"/>
		<path d="M3010 851 l0 -201 210 0 210 0 0 41 c0 41 -1 41 -30 36 -16 -4 -91 -10 -165 -13 l-135 -7 0 57 0 57 144 -3 144 -3 4 34 4 33 -148 -7 -148 -7 0 62 0 63 103 -7 c56 -4 130 -9 165 -12 l62 -6 0 36 0 36 -187 0 c-104 0 -198 3 -210 6 l-23 6 0 -201z"/>
		<path d="M3581 1036 c-70 -25 -102 -101 -66 -153 21 -29 91 -50 215 -63 57 -6 112 -15 121 -20 37 -20 33 -65 -8 -81 -59 -22 -222 -5 -295 32 -21 11 -40 19 -43 19 -3 0 -5 -19 -3 -42 l3 -42 70 -19 c103 -27 265 -27 327 0 52 24 68 46 68 96 0 63 -65 98 -210 112 -135 12 -174 31 -163 76 14 52 198 49 336 -6 16 -7 18 -3 15 36 l-3 43 -60 13 c-76 16 -260 15 -304 -1z"/>
	</g>
</svg>
