<?xml version="1.0" standalone="no"?>
<svg version="1.0" xmlns="http://www.w3.org/2000/svg" width="1000.000000px" height="1000.000000px" viewBox="0 0 1000.000000 1000.000000">
	<g transform="translate(0.000000,1000.000000) scale(0.100000,-0.100000)" fill="hsl(60, 92%, 0%)" stroke="none">
		<style>
			rect { fill: hsl(60, 92%, 50%) }
			@media (prefers-color-scheme: dark) { rect { fill: hsl(60, 92%, 40%) } }
		</style>
		<rect width="10000" height="10000" />
		<circle cx="5000" cy="6430" r="2460" fill="hsl(60, 92%, 0%)" />
		<circle cx="5000" cy="6430" r="2400" fill="hsl(60, 92%, 100%)" />
		<path d="M4780 8880 c-277 -24 -566 -104 -830 -227 -586 -275 -1032 -762 -1260 -1378 -160 -432 -191 -953 -83 -1410 73 -313 232 -653 428 -915 96 -130 347 -380 483 -484 520 -394 1208 -565 1862 -465 388 60 791 230 1103 466 135 103 384 352 482 483 238 318 398 700 466 1105 30 184 31 550 0 742 -103 655 -446 1225 -971 1614 -304 225 -684 382 -1090 450 -133 22 -441 32 -590 19z m-202 -1021 l-3 -342 -318 -177 c-175 -98 -318 -182 -319 -186 0 -5 128 -81 284 -169 156 -88 300 -170 321 -182 l37 -22 0 -336 c0 -270 -3 -336 -13 -333 -16 4 -1047 626 -1064 642 -10 8 -13 108 -13 406 l-1 395 533 322 c293 177 539 322 546 322 10 1 12 -70 10 -340z m1787 26 c14 -77 32 -158 41 -181 29 -80 91 -114 259 -144 66 -11 131 -25 145 -29 27 -9 30 -8 -170 -46 -117 -22 -146 -33 -185 -67 -42 -36 -59 -82 -85 -228 -11 -63 -23 -126 -27 -140 l-6 -25 -8 30 c-5 17 -18 82 -30 145 -41 227 -64 248 -314 294 -76 15 -140 28 -142 30 -3 2 22 9 54 15 222 42 255 51 296 78 59 39 80 88 112 262 16 83 30 150 31 148 1 -1 14 -65 29 -142z m-775 -44 c0 -9 -109 -316 -378 -1061 -198 -549 -300 -842 -443 -1270 l-119 -355 -99 3 -99 3 23 67 c355 1028 663 1909 816 2335 l104 287 97 0 c54 0 98 -4 98 -9z m491 -1237 l539 -326 -2 -396 -3 -397 -535 -322 c-294 -177 -538 -323 -542 -323 -5 0 -8 154 -8 343 l0 342 271 150 c150 83 296 164 326 181 l55 31 -326 183 -326 183 0 338 c0 187 3 339 6 339 4 0 249 -147 545 -326z m-2226 -864 c32 -175 50 -219 104 -258 44 -32 71 -40 254 -73 65 -12 117 -23 115 -24 -2 -2 -68 -15 -147 -30 -155 -28 -202 -44 -239 -78 -39 -36 -52 -71 -82 -229 -17 -83 -32 -153 -34 -156 -3 -2 -8 13 -11 34 -25 139 -56 277 -68 301 -37 71 -84 93 -272 127 -76 15 -140 28 -142 30 -4 3 29 10 208 45 100 20 163 50 193 93 22 30 39 95 66 246 13 67 24 121 26 120 1 -2 15 -69 29 -148z"/>
		<path d="M2830 3695 c-251 -51 -380 -184 -380 -394 0 -82 19 -155 53 -206 98 -146 242 -205 497 -205 173 0 281 25 398 91 l55 32 -7 60 c-3 33 -6 68 -6 78 0 16 -7 13 -47 -17 -104 -80 -239 -124 -377 -124 -85 0 -187 20 -236 45 -158 82 -200 287 -87 420 52 62 195 114 318 115 81 0 230 -34 323 -76 45 -19 87 -38 94 -41 9 -4 12 14 12 74 l0 79 -82 28 c-167 54 -378 71 -528 41z"/>
		<path d="M4725 3693 l-160 -3 0 -396 0 -396 340 4 c310 4 345 6 397 25 118 42 168 96 168 183 0 57 -26 107 -72 137 -40 27 -131 53 -185 53 -54 0 -37 17 28 29 119 21 179 79 179 173 0 88 -53 142 -170 173 -57 15 -295 23 -525 18z m437 -131 c47 -19 68 -48 68 -95 0 -50 -19 -80 -63 -104 -25 -14 -67 -18 -204 -21 -95 -2 -184 -1 -198 2 -25 6 -25 8 -25 104 0 99 4 114 30 125 24 11 362 1 392 -11z m2 -332 c72 -15 106 -45 106 -92 0 -40 -21 -73 -59 -93 -45 -23 -175 -34 -322 -28 l-137 6 -6 51 c-3 28 -6 77 -6 108 l0 57 63 3 c128 6 304 0 361 -12z"/>
		<path d="M3512 3672 c7 -10 35 -44 64 -77 28 -33 112 -136 186 -228 l136 -168 6 -79 c4 -44 4 -111 0 -150 l-7 -70 93 0 93 0 -7 70 c-4 39 -4 106 0 149 l6 79 132 164 c72 91 156 194 185 229 30 35 61 71 69 81 12 15 5 16 -93 16 l-106 -1 -41 -61 c-68 -101 -229 -316 -236 -316 -6 1 -86 108 -236 315 l-43 61 -107 1 c-98 1 -106 0 -94 -15z"/>
		<path d="M5630 3292 l0 -392 418 2 417 3 3 77 3 77 -33 -5 c-149 -20 -217 -25 -409 -31 l-219 -6 0 111 0 112 68 1 c150 2 342 -2 424 -7 l86 -6 4 58 c2 33 2 62 -1 65 -3 3 -107 3 -231 0 -124 -4 -253 -5 -288 -3 l-63 4 3 112 3 111 175 -3 c166 -3 452 -26 471 -38 5 -3 9 30 9 73 l0 78 -420 0 -420 0 0 -393z"/>
		<path d="M6635 3295 l0 -396 95 3 c65 2 94 7 93 15 -1 6 -6 73 -9 149 l-7 137 114 -6 c211 -12 310 -66 359 -196 12 -31 26 -66 31 -78 8 -22 14 -23 124 -23 82 0 115 3 115 12 0 24 -85 141 -134 184 -53 46 -146 96 -203 109 -41 8 -43 25 -3 25 48 0 132 21 187 47 60 28 94 64 118 127 15 38 15 52 5 102 -16 78 -63 124 -157 156 -64 21 -88 22 -398 26 l-330 3 0 -396z m620 258 c60 -31 77 -55 77 -106 0 -60 -22 -90 -84 -117 -60 -26 -214 -37 -351 -25 l-87 7 0 122 c0 83 4 126 12 134 9 9 62 12 203 9 170 -2 194 -5 230 -24z"/>
		<path d="M1167 2636 c-72 -26 -107 -76 -107 -151 0 -65 25 -111 75 -140 48 -29 116 -33 169 -11 44 18 52 33 30 57 -15 17 -20 17 -38 6 -35 -23 -68 -27 -101 -13 -83 35 -89 153 -10 191 42 19 53 19 97 -4 36 -18 38 -18 54 0 16 18 16 20 0 38 -16 17 -86 42 -118 41 -7 -1 -30 -7 -51 -14z"/>
		<path d="M7296 2635 c-80 -28 -124 -99 -111 -181 12 -81 79 -134 170 -134 62 0 107 21 140 64 70 92 23 223 -92 255 -48 14 -59 13 -107 -4z m100 -60 c47 -19 71 -73 55 -126 -32 -108 -201 -82 -201 31 0 33 28 78 58 94 34 19 45 19 88 1z"/>
		<path d="M8780 2639 c-47 -13 -80 -52 -80 -93 0 -40 29 -69 85 -86 78 -23 95 -32 95 -51 0 -32 -43 -45 -98 -30 -68 19 -73 18 -83 -6 -11 -30 14 -43 91 -50 101 -10 160 25 160 94 0 42 -26 68 -82 84 -77 21 -98 31 -98 49 0 10 7 23 15 30 14 12 27 11 120 -2 15 -2 21 3 23 23 3 24 -2 28 -42 38 -51 13 -58 13 -106 0z"/>
		<path d="M1450 2481 l0 -161 30 0 c24 0 30 4 30 23 0 51 11 67 46 67 27 0 38 -7 65 -45 24 -34 39 -45 59 -45 41 0 42 9 8 57 l-30 45 26 24 c32 30 42 66 30 112 -15 59 -50 76 -165 80 l-99 4 0 -161z m181 83 c45 -41 11 -94 -62 -94 -47 0 -48 1 -55 36 -4 21 -2 46 5 61 10 23 16 25 52 20 22 -3 49 -13 60 -23z"/>
		<path d="M1820 2480 l0 -161 123 3 122 3 0 25 c0 25 -2 25 -88 28 l-88 3 3 37 3 37 73 3 c69 3 72 4 72 27 0 24 -2 25 -76 25 l-75 0 3 38 3 37 83 3 c80 3 82 3 82 27 l0 25 -120 0 -120 0 0 -160z"/>
		<path d="M2251 2618 c-5 -13 -36 -83 -69 -156 -48 -104 -57 -134 -46 -139 27 -10 59 6 71 37 11 30 12 30 86 30 75 0 75 0 95 -34 17 -29 26 -34 49 -31 17 2 27 8 25 16 -1 8 -30 78 -65 156 l-62 142 -38 1 c-30 0 -39 -5 -46 -22z m75 -114 c15 -39 15 -47 3 -55 -13 -9 -66 -5 -76 5 -8 7 39 106 47 101 5 -3 16 -26 26 -51z"/>
		<path d="M2517 2633 c-4 -3 -7 -15 -7 -25 0 -14 8 -18 33 -18 79 0 77 2 77 -141 l0 -129 33 4 32 3 3 124 c2 83 7 126 15 131 7 4 29 8 50 8 33 0 37 3 37 25 l0 25 -133 0 c-74 0 -137 -3 -140 -7z"/>
		<path d="M2870 2480 l0 -160 35 0 35 0 0 160 0 160 -35 0 -35 0 0 -160z"/>
		<path d="M3020 2635 c0 -11 112 -269 127 -293 11 -18 22 -22 45 -20 30 3 34 9 95 148 35 80 63 151 63 158 0 9 -10 12 -31 10 -29 -3 -33 -10 -77 -110 -25 -60 -49 -108 -52 -108 -4 0 -27 48 -52 108 -45 106 -46 107 -82 110 -20 2 -36 0 -36 -3z"/>
		<path d="M3430 2480 l0 -161 122 3 122 3 0 25 c0 25 -1 25 -87 28 l-88 3 3 37 3 37 73 3 c69 3 72 4 72 27 0 23 -3 24 -72 27 -72 3 -73 3 -76 32 -5 39 10 46 96 46 70 0 72 1 72 25 l0 25 -120 0 -120 0 0 -160z"/>
		<path d="M3925 2610 c4 -17 26 -88 49 -158 l43 -127 39 0 39 0 33 95 c18 52 36 98 40 102 5 5 21 -33 37 -84 34 -110 39 -118 75 -118 15 0 32 6 37 13 10 12 103 284 103 300 0 5 -14 7 -32 5 -31 -3 -33 -6 -67 -105 -19 -57 -38 -103 -42 -103 -3 0 -21 47 -40 105 l-33 106 -34 -3 c-35 -3 -35 -4 -70 -105 -19 -57 -38 -103 -42 -103 -3 0 -21 47 -40 105 l-34 105 -34 0 c-32 0 -33 -1 -27 -30z"/>
		<path d="M4510 2480 l0 -161 122 3 122 3 0 25 c0 25 -1 25 -87 28 l-88 3 3 37 3 37 73 3 c69 3 72 4 72 27 0 23 -3 24 -72 27 -72 3 -73 3 -76 32 -5 39 10 46 96 46 70 0 72 1 72 25 l0 25 -120 0 -120 0 0 -160z"/>
		<path d="M4857 2633 c-3 -5 -4 -76 -3 -158 l2 -150 60 -3 c32 -2 88 0 123 3 104 11 140 68 85 134 -24 29 -24 32 -10 53 24 33 20 71 -10 99 -23 22 -35 24 -134 27 -59 2 -110 0 -113 -5z m184 -53 c21 -12 25 -40 7 -58 -7 -7 -36 -12 -65 -12 l-53 0 0 40 0 40 46 0 c25 0 54 -5 65 -10z m19 -140 c40 -40 -14 -78 -96 -68 -26 3 -29 7 -32 46 l-3 42 55 0 c43 0 61 -5 76 -20z"/>
		<path d="M5410 2479 l0 -162 99 6 c116 6 161 24 193 75 28 46 29 116 2 163 -32 56 -91 79 -201 79 l-93 0 0 -161z m152 105 c58 -10 88 -44 88 -98 0 -69 -30 -98 -107 -104 l-60 -4 -7 32 c-12 61 -7 148 10 164 17 18 23 18 76 10z"/>
		<path d="M5820 2480 l0 -161 123 3 122 3 0 25 c0 25 -2 25 -88 28 l-88 3 3 37 3 37 73 3 c69 3 72 4 72 27 0 24 -2 25 -76 25 l-75 0 3 38 3 37 83 3 c80 3 82 3 82 27 l0 25 -120 0 -120 0 0 -160z"/>
		<path d="M6130 2635 c0 -11 112 -269 127 -293 11 -18 22 -22 45 -20 30 3 34 9 93 143 85 195 81 177 39 173 -35 -3 -37 -5 -79 -103 -24 -55 -49 -100 -55 -100 -6 0 -31 45 -54 100 -42 99 -43 100 -79 103 -21 2 -37 0 -37 -3z"/>
		<path d="M6550 2480 l0 -161 118 3 117 3 0 25 c0 24 -2 25 -80 28 -44 2 -84 7 -88 11 -5 5 -6 23 -2 40 7 31 7 31 75 31 71 0 85 6 74 34 -5 12 -21 16 -74 16 -63 0 -68 2 -74 24 -12 49 -1 56 91 56 82 0 84 1 81 23 -3 21 -7 22 -120 25 l-118 3 0 -161z"/>
		<path d="M6890 2480 l0 -160 115 0 115 0 0 30 0 30 -80 0 -80 0 0 130 0 130 -35 0 -35 0 0 -160z"/>
		<path d="M7630 2480 c0 -159 0 -160 23 -160 28 0 42 10 43 33 3 58 2 57 49 57 93 0 155 47 155 117 -1 79 -55 113 -182 113 l-88 0 0 -160z m181 84 c45 -41 11 -94 -62 -94 -47 0 -48 1 -55 36 -4 21 -2 46 5 61 10 23 16 25 52 20 22 -3 49 -13 60 -23z"/>
		<path d="M7997 2633 c-2 -5 -3 -75 -3 -158 l2 -150 122 -3 122 -3 0 31 0 30 -86 0 -85 0 3 38 3 37 68 3 c64 3 67 4 67 27 0 24 -2 25 -71 25 l-70 0 3 38 3 37 78 3 c74 3 77 4 77 27 l0 25 -114 0 c-63 0 -117 -3 -119 -7z"/>
		<path d="M8340 2479 l0 -160 33 4 c30 3 32 6 35 45 3 41 4 42 40 42 32 -1 41 -7 69 -45 27 -35 38 -44 63 -43 36 1 37 4 5 50 -14 20 -25 40 -25 44 0 3 11 19 25 36 34 40 35 115 3 146 -36 32 -72 42 -164 42 l-84 0 0 -161z m165 97 c31 -13 35 -19 35 -50 0 -43 -20 -56 -84 -56 l-46 0 0 54 c0 69 24 81 95 52z"/>
		<path d="M3490 2094 c-154 -33 -287 -133 -327 -246 -23 -66 -25 -235 -4 -288 72 -180 239 -269 508 -270 126 0 187 10 288 47 57 21 83 39 136 92 85 85 104 135 104 276 0 93 -3 106 -33 167 -57 116 -163 189 -324 223 -89 18 -258 18 -348 -1z m319 -120 c73 -20 141 -70 177 -130 27 -45 29 -57 29 -144 0 -106 -15 -149 -70 -205 -73 -72 -217 -108 -352 -87 -180 28 -273 123 -273 279 0 146 71 245 205 286 66 21 214 21 284 1z"/>
		<path d="M7323 2099 c-167 -14 -266 -60 -304 -143 -40 -87 -13 -185 64 -230 75 -44 148 -59 412 -86 199 -20 255 -47 255 -119 0 -54 -37 -84 -125 -101 -163 -31 -509 37 -598 117 -17 16 -18 13 -15 -72 l3 -89 60 -19 c122 -37 320 -67 450 -67 96 0 229 22 288 48 90 40 138 127 122 223 -19 112 -133 160 -452 189 -245 23 -299 48 -291 138 6 73 91 100 287 89 119 -6 217 -25 327 -62 41 -14 78 -25 82 -25 4 0 7 35 7 77 l0 77 -105 22 c-58 12 -150 25 -205 29 -55 3 -113 7 -130 9 -16 2 -76 -1 -132 -5z"/>
		<path d="M2090 1694 l0 -395 88 3 87 3 0 150 0 150 146 9 c80 5 203 5 273 1 l128 -7 -4 -154 -4 -155 90 3 89 3 1 392 1 392 -90 -2 -89 -2 3 -178 3 -177 -274 2 -273 3 3 177 4 176 -91 0 -91 0 0 -394z"/>
		<path d="M4355 1694 l0 -394 88 0 87 0 0 302 c0 257 2 299 14 283 17 -26 138 -294 206 -458 l53 -128 84 3 84 3 88 205 c48 113 110 250 137 305 l48 100 4 -40 c2 -22 2 -160 0 -308 l-3 -267 91 0 90 0 0 394 -1 394 -133 -2 -133 -1 -65 -155 c-100 -241 -197 -451 -207 -447 -11 3 -121 250 -198 446 l-62 158 -136 0 -136 1 0 -394z"/>
		<path d="M5630 1695 l0 -395 93 0 92 0 -2 392 -3 393 -90 2 -90 2 0 -394z"/>
		<path d="M6015 2050 c6 -31 8 -657 2 -720 l-2 -25 423 -2 422 -2 0 80 c0 77 -1 79 -22 75 -75 -16 -250 -28 -428 -29 l-205 -2 -3 108 -3 107 63 1 c125 2 325 -1 426 -7 l102 -6 0 67 0 67 -52 -5 c-50 -6 -371 -11 -486 -8 l-53 1 3 113 3 112 175 -3 c166 -3 452 -26 471 -38 5 -3 9 30 9 73 l0 78 -426 0 -425 0 6 -35z"/>
	</g>
</svg>
