<?xml version="1.0" encoding="UTF-8" standalone="no"?>
<svg xmlns:dc="http://purl.org/dc/elements/1.1/" xmlns:cc="http://creativecommons.org/ns#" xmlns:rdf="http://www.w3.org/1999/02/22-rdf-syntax-ns#" xmlns:svg="http://www.w3.org/2000/svg" xmlns="http://www.w3.org/2000/svg" width="640" height="640" id="svg6486" version="1.1">
	<title>Philippine Science High School System (PSHS)</title>
	<g id="pisaylogo" transform="translate(-41.22302,-19.241084)">
		<rect id="rect6619" height="319.45871" width="319.46756" y="179.82231" x="201.31177"/>
		<circle transform="matrix(8.8740989,0,0,8.8738528,30.618475,5.0162976)" id="circle6621" r="18" cy="19.698999" cx="19.235001" style="fill:#48c4d3" d="m 37.235001,19.698999 c 0,9.941126 -8.058875,18 -18,18 -9.9411259,0 -18.0000004,-8.058874 -18.0000004,-18 0,-9.9411251 8.0588745,-17.9999996 18.0000004,-17.9999996 9.941125,0 18,8.0588745 18,17.9999996 z"/>
		<circle transform="matrix(8.8740989,0,0,8.8738528,30.618475,5.0162976)" d="m 37.195,19.648001 c 0,9.941125 -8.058875,18 -18,18 -9.9411258,0 -18.0000003,-8.058875 -18.0000003,-18 0,-9.9411258 8.0588745,-18.0000003 18.0000003,-18.0000003 9.941125,0 18,8.0588745 18,18.0000003 z" style="fill:#48c4d3" cx="19.195" cy="19.648001" r="18" id="circle6625"/>
		<path style="fill:#ffffff" d="m 202.09269,338.65542 c 88.01331,-0.2396 159.3167,-71.62087 159.3167,-159.70273 0,-88.072993 -71.29451,-159.480886 -159.30783,-159.711606 l -0.009,319.414336 z" id="path6627"/>
		<path d="M 360.66396,178.95269 C 360.43323,90.93294 289.03223,19.640407 200.9568,19.640407 112.88137,19.640407 41.480372,90.93294 41.249645,178.95269 H 360.66396 z" id="path6629"/>
		<circle transform="matrix(8.8740989,0,0,8.8738528,30.618475,5.0162976)" d="m 73.314999,19.650999 c 0,9.941126 -8.058875,18 -18,18 -9.941126,0 -18,-8.058874 -18,-18 0,-9.9411254 8.058874,-17.9999999 18,-17.9999999 9.941125,0 18,8.0588745 18,17.9999999 z" style="fill:#48c4d3" cx="55.314999" cy="19.650999" r="18" id="circle6633"/>
		<path style="fill:#ffffff" d="m 361.79097,179.39638 c 0.2396,88.01087 71.61398,159.3034 159.69829,159.3034 88.07543,0 159.4853,-71.29253 159.71603,-159.3034 l -319.41432,0 z" id="path6635"/>
		<path d="m 521.48926,339.09911 c 88.02218,-0.2396 159.31669,-71.62974 159.31669,-159.70273 0,-88.07299 -71.29451,-159.480884 -159.30782,-159.711604 l -0.009,319.414334 z" id="path6637"/>
		<circle transform="matrix(8.8740989,0,0,8.8738528,30.618475,5.0162976)" d="m 73.314999,55.648998 c 0,9.941126 -8.058875,18 -18,18 -9.941126,0 -18,-8.058874 -18,-18 0,-9.941125 8.058874,-18 18,-18 9.941125,0 18,8.058875 18,18 z" style="fill:#48c4d3" cx="55.314999" cy="55.648998" r="18" id="circle6641"/>
		<path style="fill:#ffffff" d="m 521.08105,338.71753 c -88.01332,0.2396 -159.3167,71.62974 -159.3167,159.70273 0,88.07299 71.30338,159.48088 159.3167,159.72048 V 338.71753 z" id="path6643"/>
		<path d="m 361.77322,498.83733 c 0.24848,88.01975 71.6406,159.30341 159.72491,159.30341 88.05768,0 159.46756,-71.28366 159.70716,-159.30341 H 361.77322 z" id="path6645"/>
		<circle transform="matrix(8.8740989,0,0,8.8738528,30.618475,5.0162976)" d="m 37.315001,55.724998 c 0,9.941126 -8.058875,18 -18,18 -9.941126,0 -18.0000005,-8.058874 -18.0000005,-18 0,-9.941125 8.0588745,-18 18.0000005,-18 9.941125,0 18,8.058875 18,18 z" style="fill:#48c4d3" cx="19.315001" cy="55.724998" r="18" id="circle6649"/>
		<path style="fill:#ffffff" d="M 361.73773,498.65098 C 361.49813,410.63124 290.106,339.3387 202.03057,339.3387 c -88.08431,0 -159.485306,71.29254 -159.724907,159.30341 l 319.432067,0.009 z" id="path6651"/>
		<path d="m 201.60461,339.40082 c -88.02218,0.23959 -159.316695,71.62974 -159.316695,159.70273 0,88.07299 71.294515,159.47201 159.316695,159.7116 V 339.40082 z" id="path6653"/>
		<path id="path10138" d="m 201.31177,339.78393 165.6408,40.4218 155.47414,-41.0827 -0.93308,-159.72665 -319.39659,0.42593 z" style="fill:#ffffff;stroke:none"/>
		<path id="path10130" d="m 337.15462,405.37663 c 15.99583,4.39778 33.50745,3.28608 49.76811,0 13.753,-2.7793 27.4641,-8.06309 38.78986,-16.34541 7.68228,-5.61792 14.05583,-13.31845 18.54106,-21.71257 4.37987,-8.19691 4.08312,-18.21806 7.56281,-26.83574 3.73253,-9.24384 14.14976,-26.34783 14.14976,-26.34783 0,0 -10.36838,6.28182 -14.5492,10.58059 -4.64892,4.78006 -11.31071,16.49913 -11.31071,16.49913 0,0 1.1039,-36.48132 -0.24396,-54.64735 -0.96669,-13.02872 -5.61111,-38.78986 -5.61111,-38.78986 0,0 -6.2805,12.43455 -9.13054,18.7874 -3.45602,7.70361 -9.65449,23.41791 -9.65449,23.41791 0,0 -7.79825,-13.66376 -9.51449,-21.22464 -1.44052,-6.34623 1.55811,-13.33924 -0.48792,-19.5169 -3.19215,-9.63815 -14.93544,-15.07754 -17.56522,-24.88407 -1.3959,-5.20536 1.46377,-16.10145 1.46377,-16.10145 0,0 -10.44294,16.81329 -3.17151,30.9831 4.41786,8.60906 0.97586,37.08213 0.97586,37.08213 0,0 -16.10728,-20.08818 -20.49276,-31.95894 -3.69848,-10.01119 -0.0474,-21.96649 -4.3913,-31.71498 -9.56616,-21.46814 -34.39856,-24.6401 -34.39856,-24.6401 0,0 10.49191,10.27975 5.36715,25.85991 -4.04806,12.30683 -13.21994,23.19704 -14.63768,36.10627 -1.17925,10.73761 5.36715,31.95895 5.36715,31.95895 0,0 -14.7864,-9.50825 -20.73672,-15.85749 -6.21542,-6.63211 -15.1256,-22.68841 -15.1256,-22.68841 0,0 -14.46541,16.0266 -2.92754,32.44686 7.87478,11.2071 19.53984,21.36277 21.71256,34.88648 1.36723,8.51007 -6.09903,25.12802 -6.09903,25.12802 0,0 -12.02322,-15.55543 -20.98068,-15.1256 -10.91701,0.52386 -18.98682,-5.6323 -28.29951,-13.17391 14.93267,18.49888 9.50255,40.19665 29.03139,64.16184 14.32793,16.63092 35.43273,27.84735 56.59905,33.66666 z" style="fill:#ce1126;fill-opacity:1;stroke:none"/>
		<path id="path10132" d="m 344.90625,254.1875 c -0.0207,0.0114 -0.016,0.0556 -0.0312,0.0937 -0.48792,1.21981 -2.93881,29.61151 -2.84375,44.46875 0.065,10.158 2.3125,30.375 2.3125,30.375 0,0 -5.83474,-3.61595 -9.0625,-4.75 -4.39707,-1.54487 -13.75,-2.6875 -13.75,-2.6875 0,0 3.10168,11.22337 4.5625,16.84375 1.1715,4.50727 3.375,13.53125 3.375,13.53125 0,0 -11.44331,0.34571 -17.15625,0.21875 -3.35769,-0.0746 -10.03125,-0.5625 -10.03125,-0.5625 0,0 7.15455,8.05069 14.5,16.4375 5.98963,6.83878 11.31988,14.85637 17.5625,17.9375 11.45131,5.65195 25.29885,3.99859 38.0625,4.40625 9.56273,0.30543 19.76696,2.06955 28.65625,-1.46875 8.14595,-3.24243 16.49637,-9.02544 20,-17.0625 3.87052,-8.8787 -1.21875,-29.03125 -1.21875,-29.03125 0,0 -3.18413,3.00453 -4.65625,4.625 -1.70249,1.87404 -4.8125,5.875 -4.8125,5.875 0,0 -1.06441,-21.84921 -4.1875,-32.21875 C 403.52351,312.37355 394,296.3125 394,296.3125 c 0,0 -3.56885,6.45334 -5.0625,9.8125 -1.6181,3.63903 -4.21875,11.1875 -4.21875,11.1875 0,0 -10.87173,-19.4837 -17.4375,-28.46875 C 362.64159,282.49454 356.01702,277.6845 351.875,271 c -3.08263,-4.97483 -6.32648,-17.16588 -6.96875,-16.8125 z m 3.71875,21.65625 c 0,0 13.87522,18.06393 19.59375,27.875 6.46967,11.09974 16.5,34.8125 16.5,34.8125 0,0 2.59691,-10.07355 4.5625,-14.875 1.42407,-3.47864 5.21875,-10 5.21875,-10 0,0 3.49721,6.98559 4.71875,10.6875 1.4669,4.44551 2.59122,9.03 3.0625,13.6875 0.88432,8.73949 -0.46875,26.375 -0.46875,26.375 0,0 5.38369,-3.99844 8.34375,-5.53125 2.46541,-1.27666 7.75,-3.03125 7.75,-3.03125 0,0 0.39837,9.45677 -1.71875,13.4375 -3.70709,6.9703 -10.367,12.96845 -17.8125,15.59375 -7.92566,2.79461 -17.40471,0.7725 -26.09375,0.8125 -11.42352,0.0526 -22.07049,1.19063 -32.1875,-3.25 -10.636,-4.66843 -24.65625,-24.625 -24.65625,-24.625 0,0 7.90002,-0.28182 11.78125,0.3125 4.32231,0.66186 12.625,3.59375 12.625,3.59375 l -10,-30.25 c 0,0 6.61036,-0.15023 9.6875,0.875 3.87869,1.29229 10.4375,6.4375 10.4375,6.4375 0,0 -1.25828,-26.219 -1.46875,-39.34375 -0.12608,-7.86236 0.125,-23.59375 0.125,-23.59375 z" style="fill:#fcd116;fill-opacity:1;stroke:none"/>
		<path id="path10136" d="m 366.18602,379.0288 c 4.52559,0.50737 9.20058,0.91415 13.66183,0 7.79834,-1.59794 21.95653,-9.39251 21.95653,-9.39251 0,0 -8.28548,1.88303 -12.44445,1.48793 -2.29322,-0.21786 -6.58454,-2.09783 -6.58454,-2.09783 0,0 5.81023,-2.8456 6.0138,-8.69686 0.24987,-7.18204 6.42823,-20.57851 6.42823,-20.57851 0,0 -5.42802,3.70759 -7.66442,6.08135 -3.40943,3.61883 -8.55901,12.21576 -8.55901,12.21576 0,0 0.24231,-7.31259 -1.41295,-11.24362 -1.01765,-2.41678 -4.10135,-4.64588 -5.46038,-7.39096 -2.10866,-4.25924 -3.98295,-13.6903 -3.98295,-13.6903 0,0 -1.95271,10.22543 -2.32213,15.40543 -0.41567,5.82847 0.12648,17.52935 0.12648,17.52935 0,0 -4.37656,-6.68995 -7.45941,-9.12528 -2.93796,-2.32087 -10.10581,-4.9025 -10.10581,-4.9025 0,0 5.61886,8.99185 7.12998,14.00885 0.98153,3.25872 1.1647,10.14333 1.1647,10.14333 0,0 -4.11896,1.15623 -6.2381,1.31236 -3.20361,0.23602 -9.61939,-0.58048 -9.61939,-0.58048 0,0 8.07337,4.95543 12.48715,6.58863 4.13058,1.52841 8.50797,2.43516 12.88484,2.92586 z" style="fill:#fcd116;fill-opacity:1;stroke:none"/>
	</g>
</svg>
