<?xml version="1.0" standalone="no"?>
<svg version="1.0" xmlns="http://www.w3.org/2000/svg" width="512.000000px" height="512.000000px" viewBox="0 0 700.000000 700.000000">
	<g transform="translate(94.000000,606.000000) scale(0.100000,-0.100000)" fill="#ffffff" stroke="none">
		<rect width="5120" height="5120" fill="hsl(60, 92%, 50%)" />
		<circle cx="2560" cy="2560" r="3500" fill="hsl(60, 92%, 50%)" />
		<circle cx="2560" cy="2560" r="2460" fill="#000000" />
		<path d="M1582 4007 l-533 -322 0 -394 c0 -307 3 -397 13 -407 19 -17 1059 -644 1070 -644 4 0 8 151 8 335 l0 336 -37 22 c-21 12 -165 94 -321 182 -156 88 -284 164 -284 169 1 4 144 88 319 186 l318 177 3 341 c2 271 0 342 -10 341 -7 0 -253 -145 -546 -322z"/>
		<path d="M3880 4088 c-24 -141 -50 -251 -68 -282 -10 -17 -36 -43 -57 -58 -44 -29 -71 -37 -248 -69 -65 -12 -117 -23 -115 -24 2 -2 68 -15 147 -30 79 -14 160 -33 180 -41 82 -34 110 -86 141 -254 11 -63 24 -128 29 -145 l8 -30 6 25 c4 14 16 77 27 140 25 140 42 189 78 223 38 37 80 52 217 77 164 29 168 30 162 36 -2 3 -65 16 -138 29 -158 29 -181 37 -226 71 -49 37 -62 71 -94 242 -16 86 -31 157 -33 159 -2 3 -9 -29 -16 -69z"/>
		<path d="M2918 3878 c-20 -57 -75 -211 -123 -343 -125 -348 -374 -1059 -761 -2178 l-23 -68 101 3 100 3 160 470 c204 601 236 694 445 1270 182 503 333 926 333 936 0 5 -44 9 -98 9 l-98 0 -36 -102z"/>
		<path d="M1375 1975 c-35 -189 -57 -281 -72 -308 -33 -55 -92 -86 -206 -108 -221 -43 -214 -41 -187 -49 14 -5 79 -18 145 -30 225 -42 253 -68 290 -270 32 -170 37 -191 42 -187 3 3 16 65 29 139 29 157 45 206 82 241 40 38 84 53 243 82 79 15 145 28 147 30 2 1 -50 12 -115 24 -183 33 -210 41 -254 73 -53 39 -73 85 -99 238 -27 157 -35 180 -45 125z"/>
		<path d="M3090 2721 l0 -338 326 -183 326 -183 -55 -31 c-30 -17 -176 -98 -326 -181 l-271 -150 0 -343 c0 -223 3 -342 10 -340 5 2 251 147 545 323 l534 320 1 397 0 396 -539 326 c-296 179 -542 326 -545 326 -3 0 -6 -152 -6 -339z"/>
	</g>
</svg>
