<?xml version="1.0" standalone="no"?>
<!DOCTYPE svg PUBLIC "-//W3C//DTD SVG 20010904//EN" "http://www.w3.org/TR/2001/REC-SVG-20010904/DTD/svg10.dtd">
<svg version="1.0" xmlns="http://www.w3.org/2000/svg" width="8px" height="8px" viewBox="0 0 4000.000000 4000.000000">
<g transform="scale(1,-1)" fill="hsl(60,100%,100%)">
<path d="M1925 -1159 c-169 -27 -298 -86 -430 -198 -137 -115 -229 -252 -272 -403 -27 -100 -25 -338 5 -443 62 -216 232 -421 437 -524 118 -60 306 -91 439 -74 217 29 352 97 517 261 89 89 111 118 146 190 78 160 95 283 68 485 -16 118 -22 139 -65 225 -126 250 -299 400 -530 459 -88 22 -244 33 -315 22z m249 -277 c97 -25 170 -70 245 -150 155 -166 208 -385 140 -583 -50 -143 -197 -286 -355 -342 -83 -30 -238 -37 -323 -14 -337 88 -515 469 -365 784 61 130 217 262 357 302 79 23 219 24 301 3z"/>
<path d="M1902 -62 c-19 -19 -17 -911 2 -927 9 -8 50 -11 117 -9 l104 3 3 459 c1 330 -1 463 -9 472 -15 18 -199 20 -217 2z"/>
<path d="M3170 -687 c-113 -114 -260 -264 -327 -333 l-121 -125 77 -82 78 -83 322 330 c176 181 321 333 321 338 0 5 -33 44 -72 86 l-73 77 -205 -208z"/>
<path d="M3017 -1877 c-13 -12 -8 -208 5 -221 14 -14 894 -17 916 -4 9 6 12 37 10 118 l-3 109 -461 3 c-253 1 -464 -1 -467 -5z"/>
<path d="M2751 -2695 c-40 -41 -71 -79 -69 -85 2 -6 147 -157 322 -336 l319 -325 79 78 c43 42 78 82 78 88 0 16 -629 655 -644 655 -7 0 -45 -34 -85 -75z"/>
<path d="M1902 -3012 c-14 -14 -17 -904 -4 -926 6 -9 37 -12 118 -10 l109 3 3 459 c1 330 -1 463 -9 472 -15 18 -199 20 -217 2z"/>
<path d="M828 -2985 c-175 -178 -318 -328 -318 -333 0 -11 139 -162 150 -162 7 0 107 101 525 528 l129 132 -79 80 c-44 44 -82 80 -85 80 -3 -1 -148 -147 -322 -325z"/>
<path d="M57 -1877 c-9 -8 -9 -196 -1 -217 5 -14 54 -16 449 -16 367 0 445 2 454 14 8 9 11 50 9 117 l-3 104 -451 3 c-248 1 -454 -1 -457 -5z"/>
<path d="M632 -603 c-39 -40 -72 -78 -72 -84 0 -16 223 -254 449 -478 l191 -190 82 82 81 82 -322 328 c-178 180 -326 329 -330 331 -3 1 -39 -31 -79 -71z"/>
</g>
</svg>
