<?xml version="1.0" standalone="no"?>
<svg version="1.0" xmlns="http://www.w3.org/2000/svg" width="1000px" height="1000px" viewBox="0 0 1000 1000">
<style>
	#bg { fill: hsl(42, 50%, 95%) }
	@media (prefers-color-scheme: dark) { #bg { fill: hsl(42, 30%, 60%) } } }
</style>
<g id="bg" transform="translate(0,1000) scale(0.1,-0.1)" stroke="none">
<path d="M0 5039 l0 -4961 21 5 c11 3 40 -2 65 -11 35 -13 50 -14 74 -5 27 10 36 8 78 -15 44 -25 53 -27 152 -23 155 5 211 4 248 -4 23 -5 39 -3 57 9 31 20 46 20 89 -1 34 -16 35 -15 66 10 34 29 36 30 90 28 40 -2 52 5 68 35 l11 21 58 -20 c82 -27 172 -27 208 1 29 23 60 29 70 12 3 -5 39 -10 79 -10 45 0 94 -7 127 -19 38 -13 71 -17 107 -13 44 4 57 1 84 -20 46 -35 83 -42 112 -22 17 10 49 16 103 16 68 1 82 4 108 25 24 21 37 24 73 20 38 -4 48 -1 77 24 18 16 48 32 66 35 19 4 42 13 51 22 13 10 21 12 30 4 7 -5 38 -12 68 -15 30 -3 68 -8 83 -12 21 -6 36 -2 56 13 24 17 45 21 127 23 97 1 216 -10 323 -31 29 -5 76 -10 102 -10 32 0 67 -9 104 -27 l55 -27 77 24 c123 37 143 37 271 -9 123 -44 140 -46 248 -35 55 5 77 3 102 -10 49 -25 72 -20 168 40 l89 56 82 -6 c59 -5 87 -3 102 6 16 10 23 10 33 0 7 -7 41 -12 87 -12 55 0 79 -4 92 -16 16 -15 32 -15 141 -5 68 6 147 16 175 23 69 16 104 4 117 -40 8 -27 13 -32 40 -31 17 1 54 -2 82 -6 35 -5 54 -4 58 4 11 17 39 14 33 -3 -9 -22 32 -32 50 -13 14 13 19 13 47 -3 73 -44 239 -65 281 -37 25 17 224 7 273 -14 24 -10 37 -11 50 -2 10 6 41 14 70 18 29 4 54 11 58 16 3 5 22 9 42 9 22 0 54 10 77 25 33 20 53 24 115 25 50 0 82 6 94 15 11 8 41 15 68 15 39 0 57 -7 100 -37 l52 -38 98 3 c77 3 102 0 122 -14 33 -21 70 -14 164 31 62 29 76 33 97 23 21 -9 37 -6 96 17 70 27 72 27 101 10 28 -16 32 -16 98 6 l69 22 52 -21 c66 -28 85 -28 151 3 29 14 61 25 70 25 9 0 47 -16 84 -36 59 -31 73 -35 109 -29 52 10 129 10 182 0 34 -6 47 -4 70 13 16 12 50 26 76 33 25 6 52 17 58 25 8 10 35 14 88 14 51 1 82 5 95 15 14 11 47 15 117 15 85 0 104 -3 146 -25 42 -22 54 -24 78 -15 26 10 31 8 50 -16 22 -27 22 -27 115 -21 80 6 96 5 112 -10 16 -14 24 -15 50 -5 23 8 35 9 45 1 19 -16 118 4 177 35 56 30 73 31 100 11 17 -13 22 -13 42 0 33 22 51 19 105 -15 64 -41 100 -51 124 -34 28 21 84 17 143 -11 l52 -24 0 4959 0 4960 -5000 0 -5000 0 0 -4961z"/>
</g>
</svg>
