<?xml version="1.0" standalone="no"?>
<svg version="1.0" xmlns="http://www.w3.org/2000/svg" width="512.000000px" height="512.000000px" viewBox="0 0 512.000000 512.000000">
<g transform="translate(0.000000,512.000000) scale(0.100000,-0.100000)" fill="#878787" stroke="none">
<path d="M2030 5103 c-521 -58 -986 -311 -1309 -712 -204 -255 -337 -544 -398 -871 -26 -140 -26 -545 1 -685 154 -814 768 -1423 1582 -1566 166 -30 464 -32 619 -5 228 38 396 95 602 200 l103 53 170 -211 c93 -116 227 -283 297 -371 119 -148 457 -568 616 -765 106 -132 150 -160 250 -160 70 0 121 18 168 59 83 70 113 202 69 298 -10 24 -75 112 -143 195 -178 220 -473 587 -626 778 -72 91 -192 241 -267 333 l-135 168 43 47 c193 207 355 515 433 824 72 283 77 609 14 878 -63 266 -175 518 -322 720 -317 435 -789 716 -1315 784 -113 15 -358 19 -452 9z m418 -538 c315 -51 616 -220 821 -460 207 -242 315 -500 341 -809 20 -253 -31 -505 -150 -741 -192 -379 -548 -649 -973 -736 -144 -29 -390 -29 -534 0 -274 56 -507 178 -701 365 -247 238 -387 533 -422 886 -29 283 53 622 208 864 216 338 573 573 962 635 92 15 347 12 448 -4z"/>
</g>
</svg>
