<?xml version="1.0" standalone="no"?>
<!DOCTYPE svg PUBLIC "-//W3C//DTD SVG 20010904//EN" "http://www.w3.org/TR/2001/REC-SVG-20010904/DTD/svg10.dtd">
<svg version="1.0" xmlns="http://www.w3.org/2000/svg" width="8px" height="8px" viewBox="0 0 4000.000000 4000.000000">
<g transform="scale(1,-1)" fill="hsl(60,100%,75%)">
<path d="M987 -75 c-133 -19 -207 -35 -207 -45 0 -4 24 -13 53 -20 171 -40 474 -187 643 -313 125 -92 324 -287 405 -397 170 -229 281 -489 334 -780 26 -143 32 -509 11 -665 -50 -361 -176 -661 -402 -955 -204 -267 -498 -467 -874 -595 -173 -58 -164 -55 -158 -60 3 -3 45 -13 94 -22 114 -22 510 -25 624 -5 279 49 553 157 760 300 279 192 525 441 675 683 320 516 353 1182 86 1733 -89 183 -206 340 -401 537 -323 326 -681 520 -1095 595 -124 22 -422 27 -548 9z m553 -170 c159 -33 347 -106 501 -195 149 -86 413 -321 565 -503 395 -471 508 -1007 332 -1562 -41 -129 -161 -366 -240 -477 -193 -267 -426 -471 -683 -598 -184 -91 -362 -151 -469 -157 l-81 -5 83 51 c112 67 256 185 369 299 302 306 477 672 528 1107 37 315 4 672 -86 950 -45 137 -158 356 -239 465 -180 239 -410 426 -720 583 l-135 69 100 -5 c55 -4 134 -13 175 -22z"/>
</g>
</svg>
