<?xml version="1.0" standalone="no"?>
<svg xmlns="http://www.w3.org/2000/svg" version="1.0" width="10px" height="10px" viewBox="0 0 480 480">
<g transform="scale(1,-1)" fill="hsl(60,100%,50%)">
<path d="M182 -165 c-38 -32 -46 -65 -28 -110 11 -25 26 -40 51 -51 45 -18 78 -10 110 28 35 42 34 91 -4 129 -38 38 -87 39 -129 4z m105 -27 c43 -40 18 -108 -39 -108 -42 0 -68 25 -68 66 0 58 63 83 107 42z"/>
<path d="M230 -65 c0 -51 10 -69 25 -44 10 15 -4 99 -16 99 -5 0 -9 -25 -9 -55z"/>
<path d="M367 -98 c-40 -41 -45 -52 -23 -52 18 0 78 68 71 81 -8 12 -7 14 -48 -29z"/>
<path d="M373 -227 c-30 -11 -9 -23 42 -23 42 0 55 3 55 15 0 11 -11 15 -42 14 -24 0 -49 -3 -55 -6z"/>
<path d="M326 -328 c-8 -14 71 -85 84 -77 8 5 0 20 -26 46 -39 40 -49 45 -58 31z"/>
<path d="M230 -415 c0 -42 3 -55 15 -55 16 0 19 27 9 79 -10 50 -24 36 -24 -24z"/>
<path d="M96 -359 c-26 -27 -34 -41 -26 -46 17 -10 88 61 74 75 -7 7 -22 -3 -48 -29z"/>
<path d="M23 -226 c-30 -13 -9 -24 43 -24 40 0 55 4 52 13 -5 12 -73 20 -95 11z"/>
<path d="M70 -78 c0 -4 17 -25 39 -46 49 -48 68 -30 20 20 -31 32 -59 44 -59 26z"/>
</g>
</svg>
