<?xml version="1.0" standalone="no"?>
<svg xmlns="http://www.w3.org/2000/svg" version="1.0" width="655.000000px" height="100.000000px" viewBox="0 0 655.000000 100.000000">
	<g transform="translate(0.000000,100.000000) scale(0.100000,-0.100000)" fill="hsl(214, 33.3333%, 75.0000%)" stroke="none">
		<path d="M10 535 l0 -335 45 0 45 0 0 129 0 129 60 4 c93 7 142 52 161 149 22 108 -20 213 -98 245 -19 8 -69 14 -123 14 l-90 0 0 -335z m181 242 c28 -21 39 -54 39 -112 0 -88 -27 -124 -92 -125 l-38 0 0 125 0 125 38 0 c20 0 44 -6 53 -13z"/>
		<path d="M410 535 l0 -335 40 0 40 0 0 186 0 186 29 29 c33 33 52 36 75 13 14 -13 16 -47 16 -215 l0 -199 40 0 40 0 0 215 c0 227 -5 255 -47 274 -45 20 -83 11 -130 -32 l-23 -20 0 116 0 117 -40 0 -40 0 0 -335z"/>
		<path d="M813 859 c-30 -11 -38 -45 -19 -74 20 -31 56 -32 81 -5 36 40 -10 99 -62 79z"/>
		<path d="M980 535 l0 -335 40 0 40 0 0 335 0 335 -40 0 -40 0 0 -335z"/>
		<path d="M3360 867 c0 -2 -29 -149 -65 -327 -36 -178 -65 -328 -65 -332 0 -4 20 -8 44 -8 l43 0 7 53 c14 102 9 97 91 97 l72 0 7 -52 c13 -98 13 -98 63 -98 32 0 44 4 41 13 -3 6 -34 157 -69 335 l-64 322 -52 0 c-29 0 -53 -1 -53 -3z m85 -267 c14 -79 25 -150 25 -157 0 -9 -18 -13 -60 -13 -57 0 -60 1 -55 23 2 12 14 76 25 142 23 139 31 174 36 160 2 -5 15 -75 29 -155z"/>
		<path d="M1172 848 c-27 -27 -3 -88 34 -88 46 0 73 57 42 88 -15 15 -61 15 -76 0z"/>
		<path d="M2152 848 c-20 -20 -15 -66 9 -78 47 -26 100 25 72 69 -13 20 -64 26 -81 9z"/>
		<path d="M3990 745 c0 -58 -2 -65 -20 -65 -16 0 -20 -7 -20 -35 0 -28 4 -35 19 -35 18 0 20 -10 23 -186 l3 -186 28 -24 c52 -45 137 -24 123 30 -5 22 -11 25 -30 20 -39 -9 -46 19 -46 190 l0 156 35 0 c33 0 35 2 35 35 0 33 -2 35 -35 35 l-35 0 0 65 0 65 -40 0 -40 0 0 -65z"/>
		<path d="M1495 688 c-11 -6 -28 -20 -37 -32 l-18 -21 0 23 c0 19 -5 22 -40 22 l-40 0 0 -330 0 -330 40 0 40 0 0 116 0 117 24 -26 c52 -56 128 -41 166 32 46 91 46 281 0 371 -30 59 -89 84 -135 58z m50 -82 c29 -29 39 -89 33 -202 -7 -129 -56 -180 -112 -114 -25 30 -26 36 -26 155 0 118 1 125 26 154 31 37 47 39 79 7z"/>
		<path d="M1868 670 c-35 -35 -38 -36 -38 -10 0 17 -7 20 -40 20 l-40 0 0 -330 0 -330 40 0 40 0 0 116 0 116 35 -31 c44 -38 83 -40 124 -6 48 41 66 103 66 230 0 127 -18 189 -66 230 -42 34 -83 33 -121 -5z m62 -50 c29 -15 44 -77 44 -175 0 -135 -29 -197 -85 -180 -43 14 -59 61 -59 178 0 113 12 155 47 176 23 13 30 13 53 1z"/>
		<path d="M2490 693 c-8 -3 -30 -19 -47 -36 l-33 -31 0 27 c0 25 -3 27 -40 27 l-40 0 0 -240 0 -240 39 0 40 0 3 186 3 186 33 29 c19 17 41 29 50 27 35 -7 42 -47 42 -240 l0 -188 41 0 40 0 -3 226 -3 226 -28 24 c-27 23 -63 29 -97 17z"/>
		<path d="M2802 683 c-121 -59 -132 -371 -16 -462 56 -44 146 -37 197 17 l27 28 -23 22 -23 22 -24 -25 c-50 -53 -132 -18 -146 64 -3 20 -8 44 -11 54 -4 15 6 17 118 17 l122 0 -5 75 c-10 160 -105 243 -216 188z m95 -61 c18 -11 43 -77 43 -112 l0 -30 -80 0 c-44 0 -80 3 -80 8 1 25 23 101 36 120 15 22 56 30 81 14z"/>
		<path d="M3715 686 c-45 -20 -67 -50 -72 -99 -7 -61 19 -112 76 -151 73 -50 101 -81 101 -114 0 -59 -73 -82 -132 -41 -28 21 -30 21 -43 3 -8 -11 -14 -25 -12 -33 4 -25 55 -54 104 -58 167 -16 226 173 85 271 -88 61 -102 76 -102 110 0 18 5 37 12 44 17 17 80 15 107 -5 23 -15 25 -15 37 2 23 31 16 45 -28 65 -50 23 -91 25 -133 6z"/>
		<path d="M4549 677 c-19 -12 -45 -44 -59 -72 -22 -44 -25 -63 -25 -160 0 -97 3 -116 25 -160 14 -28 40 -60 59 -72 72 -48 156 -18 201 72 22 44 25 63 25 160 0 97 -3 116 -25 160 -30 60 -78 95 -130 95 -22 0 -51 -9 -71 -23z m110 -66 c42 -42 52 -221 17 -304 -10 -24 -23 -38 -41 -43 -54 -13 -88 52 -89 171 -1 89 9 136 35 169 24 31 52 33 78 7z"/>
		<path d="M5003 681 c-17 -11 -36 -28 -42 -38 -9 -16 -10 -15 -11 10 0 25 -3 27 -40 27 l-40 0 0 -240 0 -240 40 0 40 0 0 184 0 184 29 31 c32 35 52 39 75 15 14 -13 16 -47 16 -215 l0 -199 40 0 40 0 0 215 c0 135 -4 223 -11 238 -21 47 -83 60 -136 28z"/>
		<path d="M5329 677 c-19 -12 -45 -44 -59 -72 -22 -44 -25 -63 -25 -160 0 -97 3 -116 25 -160 63 -126 197 -126 260 0 22 44 25 63 25 160 0 97 -3 116 -25 160 -30 60 -78 95 -130 95 -22 0 -51 -9 -71 -23z m110 -66 c42 -42 52 -221 17 -304 -10 -24 -23 -38 -41 -43 -54 -13 -88 52 -89 171 -1 89 9 136 35 169 24 31 52 33 78 7z"/>
		<path d="M5787 682 c-15 -10 -34 -27 -42 -38 -14 -18 -14 -18 -15 9 0 25 -3 27 -40 27 l-40 0 0 -240 0 -240 40 0 40 0 0 176 c0 146 3 181 17 204 22 38 59 58 81 43 15 -9 17 -36 20 -217 l2 -206 40 0 39 0 3 186 3 186 33 29 c39 35 56 36 76 7 13 -18 16 -57 16 -215 l0 -193 41 0 40 0 -3 226 -3 226 -29 25 c-40 34 -95 27 -140 -16 l-33 -32 -11 26 c-21 45 -87 58 -135 27z"/>
		<path d="M4365 679 c-11 -6 -30 -23 -42 -38 l-23 -26 0 33 c0 31 -2 32 -40 32 l-40 0 0 -240 0 -240 40 0 40 0 0 174 c0 170 0 174 25 200 13 14 38 29 55 32 27 6 30 10 30 45 0 41 -9 47 -45 28z"/>
		<path d="M800 440 l0 -240 40 0 40 0 0 240 0 240 -40 0 -40 0 0 -240z"/>
		<path d="M1170 440 l0 -240 40 0 40 0 0 240 0 240 -40 0 -40 0 0 -240z"/>
		<path d="M2150 440 l0 -240 40 0 40 0 0 240 0 240 -40 0 -40 0 0 -240z"/>
		<path d="M6200 676 c0 -2 27 -115 60 -251 58 -237 60 -249 47 -293 -13 -45 -22 -54 -60 -66 -13 -4 -17 -14 -15 -33 2 -24 8 -29 36 -31 42 -4 80 20 97 63 14 32 155 584 155 605 0 7 -17 10 -42 8 l-43 -3 -34 -177 c-20 -98 -38 -178 -41 -178 -3 0 -21 80 -41 178 l-34 177 -43 3 c-23 2 -42 1 -42 -2z"/>
	</g>
</svg>
