<?xml version="1.0" standalone="no"?>
<svg version="1.0" xmlns="http://www.w3.org/2000/svg" width="512.000000px" height="512.000000px" viewBox="0 0 512.000000 512.000000">
<g transform="translate(0.000000,512.000000) scale(0.100000,-0.100000)" fill="hsl(214, 58.3333%, 12.5000%)" stroke="none">
<path d="M4185 4983 c-954 -515 -1225 -667 -1225 -684 0 -31 359 -694 391 -721 20 -17 23 -16 82 14 131 66 1144 613 1352 730 41 23 61 41 63 56 4 24 -89 208 -261 517 -91 165 -131 226 -146 224 -3 0 -118 -61 -256 -136z"/>
<path d="M2815 4078 c-231 -118 -822 -440 -972 -530 -63 -37 -83 -55 -83 -71 0 -21 203 -408 239 -456 15 -20 24 -23 52 -17 19 3 57 20 86 36 49 28 52 33 58 77 19 153 36 228 63 285 78 165 230 283 405 315 127 22 179 13 365 -69 123 -54 157 -57 168 -13 5 19 -14 64 -79 187 -98 189 -156 290 -171 300 -18 13 -27 10 -131 -44z"/>
<path d="M1595 3322 c-38 -21 -144 -78 -235 -126 -446 -237 -831 -452 -836 -469 -3 -11 24 -74 71 -165 82 -156 99 -182 124 -182 17 0 308 153 716 375 385 210 446 245 452 263 7 16 -37 108 -123 260 -56 98 -65 100 -169 44z"/>
<path d="M324 2781 c-21 -10 -47 -28 -58 -39 -18 -21 -17 -23 58 -167 123 -237 228 -414 248 -421 10 -3 37 5 61 18 63 35 61 54 -20 211 -99 190 -224 405 -238 411 -6 2 -29 -4 -51 -13z"/>
<path d="M2614 3596 c-83 -30 -122 -56 -181 -119 -84 -88 -123 -189 -123 -314 0 -299 298 -521 582 -433 343 106 441 528 179 773 -87 82 -183 117 -316 116 -58 0 -97 -6 -141 -23z"/>
<path d="M2315 2612 c-83 -171 -558 -1167 -948 -1987 l-295 -620 151 -3 c83 -1 154 1 158 5 10 10 562 1175 1180 2492 27 57 49 108 49 113 0 5 -26 21 -57 34 -32 14 -78 40 -103 58 -25 18 -50 35 -56 39 -8 4 -35 -41 -79 -131z"/>
<path d="M3080 2705 c-36 -24 -88 -52 -115 -63 -29 -12 -49 -26 -48 -34 2 -7 217 -465 479 -1018 261 -553 536 -1134 611 -1291 l135 -286 67 -7 c82 -7 226 -8 233 0 6 6 8 2 -677 1449 -604 1275 -614 1295 -617 1295 -2 0 -32 -20 -68 -45z"/>
</g>
</svg>
