<?xml version="1.0" standalone="no"?>
<svg xmlns="http://www.w3.org/2000/svg" version="1.0" width="800px" height="120px" viewBox="0 0 7960 1050">
<style>@media (prefers-color-scheme: dark) { g { fill: hsl(34, 20.000%, 60.000%) } }</style>
<style>svg { filter: drop-shadow(-2px -2px 2px hsla(353, 50.000%, 72.000%, 0.2)) }</style>
<g transform="scale(1,-1)" fill="hsl(214, 33.3333%, 75.0000%)">
<path d="M 1190 -37 c -70 -26 -65 -123 6 -123 30 0 74 41 74 70 0 23 -33 60 -52 59 -7 0 -20 -3 -28 -6 z"/>
<path d="M 1635 -40 c -70 -28 -60 -120 12 -120 56 0 85 83 41 114 -25 18 -25 18 -53 6 z"/>
<path d="M 2810 -37 c -70 -26 -65 -123 6 -123 30 0 74 41 74 70 0 23 -33 60 -52 59 -7 0 -20 -3 -28 -6 z"/>
<path d="M 141 -417 c -45 -208 -85 -388 -88 -401 -5 -21 -2 -22 49 -22 l 54 0 34 158 35 157 75 5 c91 6 148 34 190 91 44 62 63 129 58 213 -3 62 -8 79 -32 110 -40 53 -78 66 -194 66 l -98 0 -83 -377 z m 278 251 c41 -52 21 -166 -39 -226 -33 -33 -44 -38 -84 -38 -32 0 -46 4 -46 14 0 13 46 224 56 259 4 13 16 17 49 17 35 0 48 -5 64 -26 z"/>
<path d="M 699 -42 c 0 -2 -40 -181 -88 -398 l -88 -395 44 -3 c25 -2 47 -1 49 1 2 2 25 95 49 207 46 203 61 242 108 275 30 21 74 19 86 -3 7 -13 -4 -80 -39 -238 -27 -120 -50 -225 -50 -232 0 -9 13 -12 47 -10 l 46 3 53 235 c29 129 53 248 53 263 1 39 -47 87 -88 87 -42 0 -73 -14 -114 -49 l -34 -31 23 108 c13 59 27 124 30 145 l 7 37 -47 0 c-25 0 -46 -1 -47 -2 z"/>
<path d="M 1386 -63 c -18 -72 -166 -753 -166 -764 0 -21 87 -17 94 5 3 9 40 172 81 362 42 190 80 362 84 383 l 9 37 -48 0 c-42 0 -49 -3 -54 -23 z"/>
<path d="M 4095 -397 c -82 -196 -158 -376 -167 -400 l -18 -43 54 0 54 0 34 87 34 88 84 0 85 0 -3 -88 -3 -87 50 0 50 0 5 43 c3 23 8 203 11 400 l 5 357 -62 0 -63 0 -150 -357 z m 182 32 c-5 -110 -10 -201 -12 -203 -1 -2 -34 -2 -73 0 l -71 3 80 203 c45 112 82 202 83 200 2 -2 -2 -93 -7 -203 z"/>
<path d="M 4989 -102 c 0 -2 -8 -37 -17 -78 -17 -73 -18 -75 -49 -78 -19 -2 -33 -9 -33 -16 0 -8 -3 -28 -6 -45 -6 -28 -4 -31 20 -31 14 0 26 -3 26 -6 0 -3 -20 -95 -45 -205 -26 -114 -43 -210 -39 -223 9 -37 38 -58 87 -63 61 -7 87 9 87 52 0 32 -2 35 -30 35 -19 0 -33 6 -37 16 -5 13 50 296 73 376 3 11 18 18 42 20 33 3 37 6 48 46 l 13 42 -40 0 c-44 0 -42 -5 -18 90 16 65 14 70 -36 70 -25 0 -45 -1 -46 -2 z"/>
<path d="M 1960 -257 c -8 -3 -30 -20 -49 -37 l -34 -31 6 33 7 32 -49 0 c-48 0 -50 -1 -56 -32 -4 -18 -43 -194 -86 -392 -43 -197 -79 -362 -79 -368 0 -5 21 -8 47 -6 l 47 3 30 140 c16 77 32 142 34 145 3 3 7 -2 10 -10 3 -8 18 -27 33 -42 52 -53 128 -29 196 60 74 97 119 352 78 443 -26 56 -81 81 -135 62 z m 31 -94 c20 -20 21 -29 16 -113 -12 -215 -114 -362 -186 -270 -27 34 -26 51 5 192 30 131 42 161 80 191 34 27 58 27 85 0 z"/>
<path d="M 2430 -257 c -8 -3 -30 -20 -49 -37 l -33 -31 7 33 7 32 -49 0 -48 0 -84 -382 c-46 -211 -86 -391 -89 -400 -4 -15 3 -18 44 -18 l 49 0 23 108 c13 59 28 125 33 146 l 11 39 19 -32 c35 -58 110 -65 173 -17 100 76 179 397 123 503 -26 50 -87 74 -137 56 z m 20 -83 c67 -36 24 -316 -60 -400 -40 -40 -100 -18 -115 40 -7 31 39 251 63 299 15 31 64 71 85 71 5 0 17 -5 27 -10 z"/>
<path d="M 3135 -262 c -11 -6 -35 -25 -54 -42 l -33 -31 6 38 7 37 -48 0 -48 0 -59 -268 c-33 -147 -61 -277 -64 -290 -4 -22 -2 -23 44 -20 l 49 3 45 206 c26 114 54 219 64 233 21 34 75 67 100 64 43 -6 42 -28 -7 -255 -27 -120 -51 -226 -53 -235 -5 -15 2 -18 44 -18 l 50 0 16 73 c8 39 33 153 55 251 36 165 38 183 26 213 -20 48 -90 69 -140 41 z"/>
<path d="M 3520 -266 c -70 -30 -116 -92 -154 -207 -31 -92 -42 -189 -27 -245 33 -121 165 -168 272 -98 49 33 55 47 33 81 -17 26 -17 26 -38 7 -12 -11 -31 -25 -43 -31 -78 -40 -153 38 -137 141 l 7 38 142 0 143 0 11 50 c18 82 14 150 -11 200 -37 73 -117 99 -198 64 z m 85 -70 c24 -9 45 -58 45 -103 0 -70 -1 -71 -106 -71 -108 0 -110 1 -70 86 35 75 82 106 131 88 z"/>
<path d="M 4590 -272 c -52 -27 -78 -60 -90 -114 -15 -65 4 -111 69 -174 78 -75 94 -102 86 -139 -17 -79 -110 -94 -181 -29 -21 19 -22 19 -43 -8 -29 -37 -27 -50 18 -79 123 -82 287 -10 299 131 6 73 -7 99 -89 179 -76 75 -85 102 -48 149 28 35 85 36 127 1 l 29 -24 27 27 26 28 -27 26 c-56 51 -133 61 -203 26 z"/>
<path d="M 5384 -269 c -23 -10 -49 -29 -58 -42 -17 -24 -17 -24 -11 14 l 7 37 -48 0 -49 0 -59 -268 c-33 -147 -61 -277 -64 -290 -4 -22 -2 -23 44 -20 l 49 3 45 201 c25 110 53 213 63 228 23 35 75 66 108 66 21 0 28 6 33 28 4 15 9 35 12 45 7 23 -19 22 -72 -2 z"/>
<path d="M 5613 -271 c -100 -49 -176 -216 -176 -385 0 -114 45 -179 131 -191 95 -13 187 59 237 184 32 80 51 201 41 265 -18 122 -126 180 -233 127 z m 124 -99 c40 -79 -27 -343 -97 -380 -30 -16 -65 -12 -86 11 -24 26 -23 127 1 219 32 123 77 183 135 178 25 -2 38 -10 47 -28 z"/>
<path d="M 6180 -261 c -14 -6 -39 -24 -57 -41 l -32 -31 6 37 6 37 -48 -3 -48 -3 -63 -280 c-35 -154 -63 -283 -63 -287 -1 -5 21 -8 47 -8 l 49 0 46 209 c49 225 61 254 123 287 42 23 68 11 71 -32 2 -16 -19 -126 -45 -244 l -49 -215 45 -3 c24 -2 46 -1 49 2 13 13 112 494 107 518 -11 56 -79 82 -144 57 z"/>
<path d="M 6553 -271 c -100 -49 -176 -216 -176 -385 0 -114 45 -179 131 -191 95 -13 187 59 237 184 32 80 51 201 41 265 -18 122 -126 180 -233 127 z m 124 -99 c40 -79 -27 -343 -97 -380 -30 -16 -65 -12 -86 11 -24 26 -23 127 1 219 32 123 77 183 135 178 25 -2 38 -10 47 -28 z"/>
<path d="M 7115 -263 c -16 -8 -43 -27 -59 -43 l -29 -29 7 38 7 37 -48 0 -48 0 -59 -268 c-33 -147 -61 -277 -64 -290 -4 -22 -2 -23 44 -20 l 49 3 46 209 47 210 40 38 c45 42 97 52 109 21 5 -12 -69 -381 -93 -465 -5 -16 2 -18 45 -18 28 0 51 3 51 6 0 17 82 383 92 407 17 45 75 89 111 85 26 -2 33 -8 35 -29 2 -14 -17 -119 -42 -233 -26 -114 -46 -214 -46 -222 0 -22 87 -19 94 4 26 84 105 482 100 504 -17 81 -134 89 -203 14 -29 -31 -41 -33 -41 -8 0 46 -87 75 -145 49 z"/>
<path d="M 1115 -282 c -3 -13 -32 -142 -64 -288 l -58 -265 44 -3 c25 -2 47 -1 49 1 2 2 31 125 64 273 33 148 62 277 64 287 3 14 -3 17 -45 17 -42 0 -49 -3 -54 -22 z"/>
<path d="M 1565 -272 c -2 -7 -29 -128 -60 -268 -31 -140 -59 -265 -62 -278 -5 -21 -2 -22 44 -22 l 50 0 62 283 c34 155 61 285 61 290 0 13 -90 8 -95 -5 z"/>
<path d="M 2735 -282 c -3 -13 -32 -142 -64 -288 l -58 -265 44 -3 c25 -2 47 -1 49 1 2 2 31 125 64 273 33 148 62 277 64 287 3 14 -3 17 -45 17 -42 0 -49 -3 -54 -22 z"/>
<path d="M 7604 -362 c 3 -57 7 -193 7 -303 2 -190 1 -202 -21 -245 -30 -61 -49 -80 -77 -80 -16 0 -27 -9 -37 -32 -19 -45 1 -61 64 -55 34 4 51 13 75 39 18 19 100 182 203 400 94 202 172 370 172 373 0 3 -23 5 -52 3 l -52 -3 -88 -210 c-49 -116 -92 -213 -96 -217 -4 -4 -5 92 -4 212 l 4 220 -52 0 -53 0 7 -102 z"/>
</g>
</svg>
