<?xml version="1.0" standalone="no"?>
<svg xmlns="http://www.w3.org/2000/svg" version="1.0" width="40px" height="40px" viewBox="0 0 480.000000 480.000000">
	<g transform="translate(0.000000,480.000000) scale(0.100000,-0.100000)" fill="hsl(214, 45%, 90%)" stroke="none">
		<path d="M420 3669 c-14 -6 -36 -20 -48 -32 -78 -72 -68 -185 21 -251 l28 -21 1979 0 1979 0 28 21 c98 73 98 195 0 268 l-28 21 -1967 2 c-1293 1 -1976 -2 -1992 -8z"/>
		<path d="M420 2549 c-14 -6 -36 -20 -48 -32 -78 -72 -68 -185 21 -251 l28 -21 1979 0 1979 0 28 21 c98 73 98 195 0 268 l-28 21 -1967 2 c-1293 1 -1976 -2 -1992 -8z"/>
		<path d="M420 1429 c-14 -6 -36 -20 -48 -32 -78 -72 -68 -185 21 -251 l28 -21 1979 0 1979 0 28 21 c98 73 98 195 0 268 l-28 21 -1967 2 c-1293 1 -1976 -2 -1992 -8z"/>
	</g>
</svg>
