<?xml version="1.0" standalone="no"?>
<svg xmlns="http://www.w3.org/2000/svg" version="1.0" width="48px" height="48px" viewBox="0 0 4800 4800">
	<g transform="scale(1,-1)" fill="hsl(214, 45%, 90%)" stroke="none">
		<path d="M 420 -1131 c-14 -6 -36 -20 -48 -32 -78 -72 -68 -185 21 -251 l 28 -21 1979 0 1979 0 28 21 c98 73 98 195 0 268 l -28 21 -1967 2 c-1293 1 -1976 -2 -1992 -8 z"/>
		<path d="M 420 -2251 c-14 -6 -36 -20 -48 -32 -78 -72 -68 -185 21 -251 l 28 -21 1979 0 1979 0 28 21 c98 73 98 195 0 268 l -28 21 -1967 2 c-1293 1 -1976 -2 -1992 -8 z"/>
		<path d="M 420 -3371 c-14 -6 -36 -20 -48 -32 -78 -72 -68 -185 21 -251 l 28 -21 1979 0 1979 0 28 21 c98 73 98 195 0 268 l -28 21 -1967 2 c-1293 1 -1976 -2 -1992 -8 z"/>
	</g>
</svg>
