<?xml version="1.0" standalone="no"?>
<svg version="1.0" xmlns="http://www.w3.org/2000/svg" width="800px" height="200px" viewBox="0 0 8000 2000">
<g transform="scale(1,-1)" fill="hsl(214, 58.3333%, 6.7500%)">
<path d="M 1111 -20 c -107 -29 -221 -97 -326 -196 -88 -82 -122 -136 -130 -206 -3 -31 -13 -81 -23 -110 -16 -52 -19 -55 -88 -88 -39 -19 -75 -34 -80 -34 -5 0 -37 -12 -71 -26 l-62 -26 -28 20 c-30 21 -113 42 -169 42 -19 0 -58 -10 -85 -21 l-49 -21 0 -659 0 -659 3978 1 3977 0 -75 30 c-278 111 -821 279 -1305 403 -181 47 -382 101 -445 121 -63 20 -135 43 -160 50 -128 37 -150 57 -150 140 0 53 -11 62 -133 112 -44 18 -84 38 -88 44 -3 6 -9 91 -11 188 -5 194 -9 208 -75 282 l-35 39 -116 0 c-86 0 -120 4 -131 14 -9 8 -72 24 -140 36 l-124 22 -45 -21 c-24 -12 -63 -24 -86 -27 -54 -8 -310 29 -821 116 -504 87 -511 88 -567 65 -144 -58 -228 -59 -415 -5 -110 32 -155 40 -219 40 l-81 0 -47 -50 -47 -50 3 -83 3 -82 38 -3 37 -3 0 -198 c0 -116 -4 -211 -11 -229 -13 -38 -85 -86 -149 -101 -173 -40 -196 -43 -262 -37 -101 10 -202 42 -276 86 -36 22 -71 40 -78 40 -6 0 -23 9 -38 21 l-26 20 0 196 c0 191 -1 197 -25 239 -14 23 -39 80 -56 126 -60 163 -134 260 -264 348 -27 18 -59 41 -71 52 -44 39 -266 66 -353 42 z"/>
</g>
</svg>
